<svg width="360" height="99" viewBox="0 0 360 99" fill="none" xmlns="http://www.w3.org/2000/svg">
<g filter="url(#filter0_d_156_4624)">
<rect x="5" y="4.47076" width="350" height="90.0585" rx="16.3743" fill="white"/>
<rect x="5.5117" y="4.98246" width="348.977" height="89.0351" rx="15.8626" stroke="black" stroke-opacity="0.1" stroke-width="1.02339"/>
</g>
<rect x="17.2812" y="16.7515" width="40.9357" height="40.9357" rx="8.18713" fill="#54D62C" fill-opacity="0.25"/>
<path d="M47.9825 37.2193H43.8889L40.8187 46.4298L34.6784 28.0088L31.6082 37.2193H27.5146" stroke="#54D62C" stroke-width="2.04678" stroke-linecap="round" stroke-linejoin="round"/>
<path d="M73.0375 33.9152C72.2079 33.9152 71.4383 33.7678 70.7287 33.4731C70.0301 33.1674 69.4188 32.7472 68.8948 32.2123C68.3708 31.6665 67.9669 31.0388 67.6831 30.3292C67.3993 29.6088 67.2574 28.8392 67.2574 28.0205C67.2574 27.2018 67.3993 26.4376 67.6831 25.7281C67.9669 25.0076 68.3708 24.3799 68.8948 23.845C69.4188 23.3101 70.0301 22.8899 70.7287 22.5842C71.4383 22.2786 72.2079 22.1257 73.0375 22.1257C73.9654 22.1257 74.7677 22.2786 75.4445 22.5842C76.1213 22.8899 76.7217 23.3047 77.2457 23.8287L75.9685 25.1059C75.6301 24.7347 75.2153 24.4454 74.7241 24.238C74.2437 24.0306 73.6816 23.9269 73.0375 23.9269C72.4699 23.9269 71.9513 24.0251 71.4819 24.2216C71.0126 24.4181 70.6032 24.702 70.2539 25.0731C69.9155 25.4333 69.6535 25.8645 69.4679 26.3667C69.2823 26.8688 69.1895 27.4201 69.1895 28.0205C69.1895 28.6209 69.2823 29.1721 69.4679 29.6743C69.6535 30.1764 69.9155 30.6131 70.2539 30.9842C70.6032 31.3444 71.0126 31.6228 71.4819 31.8193C71.9513 32.0158 72.4699 32.114 73.0375 32.114C73.7361 32.114 74.3256 32.0103 74.8059 31.8029C75.2972 31.5846 75.712 31.2899 76.0504 30.9187L77.3276 32.1959C76.8036 32.7308 76.1868 33.1511 75.4773 33.4567C74.7677 33.7624 73.9545 33.9152 73.0375 33.9152ZM82.1247 33.9152C81.3606 33.9152 80.6674 33.7351 80.0452 33.3749C79.423 33.0037 78.9263 32.507 78.5551 31.8848C78.1949 31.2626 78.0148 30.5694 78.0148 29.8053C78.0148 29.0411 78.1949 28.3534 78.5551 27.7421C78.9263 27.1308 79.423 26.645 80.0452 26.2848C80.6674 25.9136 81.3606 25.7281 82.1247 25.7281C82.8998 25.7281 83.5984 25.9082 84.2206 26.2684C84.8428 26.6287 85.3341 27.1199 85.6943 27.7421C86.0655 28.3534 86.251 29.0411 86.251 29.8053C86.251 30.5694 86.0655 31.2626 85.6943 31.8848C85.3341 32.507 84.8428 33.0037 84.2206 33.3749C83.5984 33.7351 82.8998 33.9152 82.1247 33.9152ZM82.1247 32.1795C82.5723 32.1795 82.9653 32.0813 83.3037 31.8848C83.653 31.6774 83.9204 31.3936 84.106 31.0333C84.3025 30.6731 84.4007 30.2637 84.4007 29.8053C84.4007 29.3468 84.3025 28.9429 84.106 28.5936C83.9095 28.2443 83.6421 27.9713 83.3037 27.7749C82.9653 27.5674 82.5723 27.4637 82.1247 27.4637C81.6881 27.4637 81.2951 27.5674 80.9458 27.7749C80.6074 27.9713 80.3399 28.2443 80.1434 28.5936C79.9578 28.9429 79.8651 29.3468 79.8651 29.8053C79.8651 30.2637 79.9578 30.6731 80.1434 31.0333C80.3399 31.3936 80.6074 31.6774 80.9458 31.8848C81.2951 32.0813 81.6881 32.1795 82.1247 32.1795ZM90.9746 33.9152C90.3087 33.9152 89.7138 33.7678 89.1898 33.4731C88.6768 33.1784 88.2729 32.7745 87.9781 32.2614C87.6943 31.7374 87.5524 31.137 87.5524 30.4602V25.8918H89.3536V30.3784C89.3536 30.7604 89.4136 31.0879 89.5337 31.3608C89.6647 31.6228 89.8503 31.8248 90.0904 31.9667C90.3415 32.1086 90.6362 32.1795 90.9746 32.1795C91.4986 32.1795 91.897 32.0267 92.1699 31.7211C92.4538 31.4045 92.5957 30.9569 92.5957 30.3784V25.8918H94.3968V30.4602C94.3968 31.148 94.2495 31.7538 93.9547 32.2778C93.6709 32.7908 93.2725 33.1947 92.7594 33.4895C92.2464 33.7733 91.6514 33.9152 90.9746 33.9152ZM96.2079 33.7515V25.8918H98.009V33.7515H96.2079ZM98.009 29.3795L97.3868 29.0684C97.3868 28.0751 97.6051 27.2727 98.0418 26.6614C98.4893 26.0392 99.1607 25.7281 100.056 25.7281C100.449 25.7281 100.804 25.799 101.12 25.9409C101.437 26.0828 101.731 26.3121 102.004 26.6287L100.825 27.8404C100.683 27.6875 100.525 27.5784 100.351 27.5129C100.176 27.4474 99.9739 27.4146 99.7447 27.4146C99.2426 27.4146 98.8277 27.5729 98.5003 27.8895C98.1728 28.206 98.009 28.7027 98.009 29.3795ZM105.271 33.9152C104.834 33.9152 104.414 33.8606 104.01 33.7515C103.606 33.6314 103.235 33.4676 102.896 33.2602C102.558 33.0419 102.263 32.7799 102.012 32.4743L103.158 31.3281C103.431 31.6446 103.742 31.8848 104.092 32.0485C104.452 32.2014 104.856 32.2778 105.304 32.2778C105.707 32.2778 106.013 32.2177 106.22 32.0977C106.428 31.9776 106.532 31.8029 106.532 31.5737C106.532 31.3335 106.433 31.148 106.237 31.017C106.04 30.886 105.784 30.7768 105.467 30.6895C105.162 30.5912 104.834 30.493 104.485 30.3947C104.146 30.2965 103.819 30.1655 103.502 30.0018C103.197 29.8271 102.946 29.5924 102.749 29.2977C102.553 29.0029 102.454 28.6209 102.454 28.1515C102.454 27.6493 102.569 27.2181 102.798 26.8579C103.038 26.4977 103.371 26.2193 103.797 26.0228C104.234 25.8263 104.752 25.7281 105.353 25.7281C105.986 25.7281 106.542 25.8427 107.023 26.0719C107.514 26.2903 107.923 26.6232 108.251 27.0708L107.105 28.217C106.875 27.9331 106.613 27.7203 106.319 27.5784C106.024 27.4365 105.686 27.3655 105.304 27.3655C104.943 27.3655 104.665 27.4201 104.468 27.5292C104.272 27.6384 104.174 27.7967 104.174 28.0041C104.174 28.2224 104.272 28.3916 104.468 28.5117C104.665 28.6318 104.916 28.7355 105.222 28.8228C105.538 28.9101 105.866 29.0084 106.204 29.1175C106.553 29.2158 106.881 29.3577 107.187 29.5433C107.503 29.7179 107.76 29.9581 107.956 30.2637C108.153 30.5585 108.251 30.946 108.251 31.4263C108.251 32.1905 107.983 32.7963 107.449 33.2439C106.914 33.6914 106.188 33.9152 105.271 33.9152ZM113.387 33.9152C112.601 33.9152 111.892 33.7405 111.259 33.3912C110.636 33.031 110.14 32.5398 109.769 31.9175C109.408 31.2953 109.228 30.5967 109.228 29.8216C109.228 29.0466 109.408 28.3534 109.769 27.7421C110.129 27.1199 110.615 26.6287 111.226 26.2684C111.848 25.9082 112.536 25.7281 113.289 25.7281C114.02 25.7281 114.664 25.8973 115.221 26.2357C115.789 26.5741 116.231 27.038 116.548 27.6275C116.875 28.217 117.039 28.8883 117.039 29.6415C117.039 29.7725 117.028 29.909 117.006 30.0509C116.995 30.1819 116.973 30.3292 116.941 30.493H110.489V29.0193H116.007L115.336 29.6088C115.314 29.1285 115.221 28.7246 115.057 28.3971C114.894 28.0696 114.659 27.8185 114.353 27.6439C114.059 27.4692 113.693 27.3819 113.256 27.3819C112.798 27.3819 112.399 27.4801 112.061 27.6766C111.723 27.8731 111.461 28.1515 111.275 28.5117C111.089 28.861 110.997 29.2813 110.997 29.7725C110.997 30.2637 111.095 30.6949 111.291 31.0661C111.488 31.4372 111.766 31.7265 112.126 31.9339C112.487 32.1304 112.902 32.2287 113.371 32.2287C113.775 32.2287 114.146 32.1577 114.484 32.0158C114.834 31.8739 115.128 31.6665 115.369 31.3936L116.515 32.5561C116.133 33.0037 115.669 33.3421 115.123 33.5713C114.577 33.8006 113.999 33.9152 113.387 33.9152ZM124.632 33.7515V22.617H126.515V33.7515H124.632ZM120.899 24.0088V22.2895H130.249V24.0088H120.899ZM131.659 33.7515V25.8918H133.46V33.7515H131.659ZM132.56 24.4509C132.254 24.4509 131.998 24.3472 131.79 24.1398C131.594 23.9324 131.495 23.6758 131.495 23.3702C131.495 23.0645 131.594 22.808 131.79 22.6006C131.998 22.3932 132.254 22.2895 132.56 22.2895C132.876 22.2895 133.133 22.3932 133.329 22.6006C133.526 22.808 133.624 23.0645 133.624 23.3702C133.624 23.6758 133.526 23.9324 133.329 24.1398C133.133 24.3472 132.876 24.4509 132.56 24.4509ZM136.676 33.7515V22.617H138.477V33.7515H136.676ZM134.793 27.5292V25.8918H140.36V27.5292H134.793ZM141.669 33.7515V21.962H143.47V33.7515H141.669ZM149.126 33.9152C148.34 33.9152 147.631 33.7405 146.997 33.3912C146.375 33.031 145.878 32.5398 145.507 31.9175C145.147 31.2953 144.967 30.5967 144.967 29.8216C144.967 29.0466 145.147 28.3534 145.507 27.7421C145.868 27.1199 146.353 26.6287 146.965 26.2684C147.587 25.9082 148.275 25.7281 149.028 25.7281C149.759 25.7281 150.403 25.8973 150.96 26.2357C151.528 26.5741 151.97 27.038 152.286 27.6275C152.614 28.217 152.778 28.8883 152.778 29.6415C152.778 29.7725 152.767 29.909 152.745 30.0509C152.734 30.1819 152.712 30.3292 152.679 30.493H146.228V29.0193H151.746L151.075 29.6088C151.053 29.1285 150.96 28.7246 150.796 28.3971C150.632 28.0696 150.398 27.8185 150.092 27.6439C149.797 27.4692 149.432 27.3819 148.995 27.3819C148.537 27.3819 148.138 27.4801 147.8 27.6766C147.461 27.8731 147.199 28.1515 147.014 28.5117C146.828 28.861 146.735 29.2813 146.735 29.7725C146.735 30.2637 146.834 30.6949 147.03 31.0661C147.227 31.4372 147.505 31.7265 147.865 31.9339C148.225 32.1304 148.64 32.2287 149.11 32.2287C149.514 32.2287 149.885 32.1577 150.223 32.0158C150.572 31.8739 150.867 31.6665 151.107 31.3936L152.254 32.5561C151.871 33.0037 151.408 33.3421 150.862 33.5713C150.316 33.8006 149.737 33.9152 149.126 33.9152Z" fill="black"/>
<path d="M69.1265 49.2661V42.3685H70.0885V49.2661H69.1265ZM66.7113 43.0439V42.1638H72.4935V43.0439H66.7113ZM76.9145 49.2661V46.4313C76.9145 46.0629 76.7985 45.7593 76.5666 45.5205C76.3346 45.2817 76.0344 45.1623 75.666 45.1623C75.4204 45.1623 75.2021 45.2169 75.011 45.3261C74.82 45.4352 74.6699 45.5853 74.5607 45.7763C74.4516 45.9674 74.397 46.1857 74.397 46.4313L74.0183 46.2164C74.0183 45.848 74.1002 45.5205 74.2639 45.2339C74.4277 44.9474 74.6562 44.7223 74.9496 44.5585C75.243 44.3879 75.5739 44.3027 75.9423 44.3027C76.3107 44.3027 76.6348 44.3845 76.9145 44.5483C77.2011 44.712 77.4262 44.9406 77.59 45.2339C77.7537 45.5273 77.8356 45.865 77.8356 46.2471V49.2661H76.9145ZM73.4759 49.2661V41.9591H74.397V49.2661H73.4759ZM79.0928 49.2661V44.405H80.0139V49.2661H79.0928ZM79.5534 43.4328C79.3828 43.4328 79.2429 43.3782 79.1338 43.269C79.0246 43.1531 78.97 43.0098 78.97 42.8392C78.97 42.6755 79.0246 42.539 79.1338 42.4299C79.2429 42.3139 79.3828 42.2559 79.5534 42.2559C79.7239 42.2559 79.8638 42.3139 79.973 42.4299C80.0821 42.539 80.1367 42.6755 80.1367 42.8392C80.1367 43.0098 80.0821 43.1531 79.973 43.269C79.8638 43.3782 79.7239 43.4328 79.5534 43.4328ZM82.9166 49.3685C82.6437 49.3685 82.3844 49.3343 82.1388 49.2661C81.9 49.1911 81.6783 49.0887 81.4736 48.9591C81.2689 48.8226 81.0915 48.6623 80.9414 48.4781L81.535 47.8845C81.7124 48.1029 81.9171 48.2666 82.149 48.3758C82.381 48.4781 82.6402 48.5293 82.9268 48.5293C83.2133 48.5293 83.4351 48.4815 83.592 48.386C83.7489 48.2837 83.8274 48.1438 83.8274 47.9664C83.8274 47.789 83.7626 47.6526 83.6329 47.557C83.5101 47.4547 83.3498 47.3728 83.1519 47.3114C82.9541 47.2432 82.7426 47.1784 82.5174 47.117C82.2991 47.0488 82.091 46.9635 81.8932 46.8611C81.6953 46.7588 81.5316 46.6189 81.4019 46.4416C81.2791 46.2642 81.2177 46.0288 81.2177 45.7354C81.2177 45.442 81.2894 45.1896 81.4326 44.9781C81.5759 44.7598 81.7738 44.5926 82.0262 44.4766C82.2855 44.3607 82.5959 44.3027 82.9575 44.3027C83.3396 44.3027 83.6773 44.3709 83.9707 44.5073C84.2709 44.637 84.5165 44.8348 84.7075 45.1009L84.1139 45.6945C83.9775 45.5171 83.8069 45.3806 83.6022 45.2851C83.4044 45.1896 83.1792 45.1418 82.9268 45.1418C82.6607 45.1418 82.456 45.1896 82.3128 45.2851C82.1763 45.3738 82.1081 45.5 82.1081 45.6638C82.1081 45.8275 82.1695 45.9537 82.2923 46.0424C82.4151 46.1311 82.5754 46.2062 82.7733 46.2676C82.978 46.329 83.1895 46.3938 83.4078 46.462C83.6261 46.5234 83.8342 46.6087 84.0321 46.7179C84.2299 46.827 84.3902 46.9737 84.5131 47.1579C84.6427 47.3421 84.7075 47.5843 84.7075 47.8845C84.7075 48.3416 84.5438 48.7032 84.2163 48.9693C83.8956 49.2354 83.4624 49.3685 82.9166 49.3685ZM87.8776 49.2661V44.405H88.7987V49.2661H87.8776ZM88.3381 43.4328C88.1676 43.4328 88.0277 43.3782 87.9186 43.269C87.8094 43.1531 87.7548 43.0098 87.7548 42.8392C87.7548 42.6755 87.8094 42.539 87.9186 42.4299C88.0277 42.3139 88.1676 42.2559 88.3381 42.2559C88.5087 42.2559 88.6486 42.3139 88.7577 42.4299C88.8669 42.539 88.9215 42.6755 88.9215 42.8392C88.9215 43.0098 88.8669 43.1531 88.7577 43.269C88.6486 43.3782 88.5087 43.4328 88.3381 43.4328ZM91.7013 49.3685C91.4284 49.3685 91.1692 49.3343 90.9236 49.2661C90.6848 49.1911 90.463 49.0887 90.2584 48.9591C90.0537 48.8226 89.8763 48.6623 89.7262 48.4781L90.3198 47.8845C90.4972 48.1029 90.7018 48.2666 90.9338 48.3758C91.1658 48.4781 91.425 48.5293 91.7116 48.5293C91.9981 48.5293 92.2199 48.4815 92.3768 48.386C92.5337 48.2837 92.6122 48.1438 92.6122 47.9664C92.6122 47.789 92.5473 47.6526 92.4177 47.557C92.2949 47.4547 92.1346 47.3728 91.9367 47.3114C91.7389 47.2432 91.5274 47.1784 91.3022 47.117C91.0839 47.0488 90.8758 46.9635 90.678 46.8611C90.4801 46.7588 90.3164 46.6189 90.1867 46.4416C90.0639 46.2642 90.0025 46.0288 90.0025 45.7354C90.0025 45.442 90.0742 45.1896 90.2174 44.9781C90.3607 44.7598 90.5586 44.5926 90.811 44.4766C91.0703 44.3607 91.3807 44.3027 91.7423 44.3027C92.1243 44.3027 92.4621 44.3709 92.7554 44.5073C93.0556 44.637 93.3012 44.8348 93.4923 45.1009L92.8987 45.6945C92.7623 45.5171 92.5917 45.3806 92.387 45.2851C92.1892 45.1896 91.964 45.1418 91.7116 45.1418C91.4455 45.1418 91.2408 45.1896 91.0975 45.2851C90.9611 45.3738 90.8929 45.5 90.8929 45.6638C90.8929 45.8275 90.9543 45.9537 91.0771 46.0424C91.1999 46.1311 91.3602 46.2062 91.5581 46.2676C91.7627 46.329 91.9742 46.3938 92.1926 46.462C92.4109 46.5234 92.619 46.6087 92.8168 46.7179C93.0147 46.827 93.175 46.9737 93.2978 47.1579C93.4275 47.3421 93.4923 47.5843 93.4923 47.8845C93.4923 48.3416 93.3285 48.7032 93.0011 48.9693C92.6804 49.2354 92.2472 49.3685 91.7013 49.3685ZM98.7194 49.3685C98.2759 49.3685 97.8734 49.2593 97.5118 49.041C97.1502 48.8158 96.8637 48.5122 96.6522 48.1301C96.4475 47.7481 96.3451 47.3183 96.3451 46.8407C96.3451 46.3631 96.4475 45.9333 96.6522 45.5512C96.8637 45.1691 97.1468 44.8655 97.5016 44.6404C97.8632 44.4152 98.2691 44.3027 98.7194 44.3027C99.0878 44.3027 99.4153 44.3811 99.7019 44.538C99.9952 44.6881 100.231 44.8996 100.408 45.1725C100.585 45.4386 100.684 45.7491 100.705 46.1038V47.5673C100.684 47.9152 100.585 48.2257 100.408 48.4986C100.237 48.7715 100.005 48.9864 99.7121 49.1433C99.4256 49.2934 99.0947 49.3685 98.7194 49.3685ZM98.8729 48.4986C99.33 48.4986 99.6985 48.3451 99.9782 48.038C100.258 47.7242 100.398 47.3251 100.398 46.8407C100.398 46.5064 100.333 46.2164 100.203 45.9708C100.081 45.7184 99.9031 45.5239 99.6712 45.3875C99.4392 45.2442 99.1697 45.1725 98.8627 45.1725C98.5557 45.1725 98.2828 45.2442 98.044 45.3875C97.812 45.5307 97.6278 45.7286 97.4913 45.981C97.3617 46.2266 97.2969 46.5098 97.2969 46.8304C97.2969 47.1579 97.3617 47.4479 97.4913 47.7003C97.6278 47.9459 97.8154 48.1404 98.0542 48.2837C98.293 48.4269 98.5659 48.4986 98.8729 48.4986ZM100.336 49.2661V47.9562L100.51 46.769L100.336 45.5921V44.405H101.268V49.2661H100.336ZM106.815 49.3685C106.365 49.3685 105.959 49.2593 105.597 49.041C105.235 48.8158 104.949 48.5122 104.737 48.1301C104.533 47.7481 104.43 47.3183 104.43 46.8407C104.43 46.3631 104.533 45.9333 104.737 45.5512C104.949 45.1691 105.235 44.8655 105.597 44.6404C105.959 44.4152 106.361 44.3027 106.805 44.3027C107.18 44.3027 107.511 44.3811 107.797 44.538C108.091 44.6881 108.323 44.8996 108.493 45.1725C108.671 45.4386 108.77 45.7491 108.79 46.1038V47.5673C108.77 47.9152 108.671 48.2257 108.493 48.4986C108.323 48.7715 108.091 48.9864 107.797 49.1433C107.511 49.2934 107.183 49.3685 106.815 49.3685ZM106.958 48.4986C107.415 48.4986 107.784 48.3451 108.063 48.038C108.343 47.7242 108.483 47.3251 108.483 46.8407C108.483 46.5064 108.418 46.2164 108.289 45.9708C108.166 45.7184 107.988 45.5239 107.756 45.3875C107.531 45.2442 107.265 45.1725 106.958 45.1725C106.651 45.1725 106.378 45.2442 106.139 45.3875C105.907 45.5307 105.723 45.7286 105.587 45.981C105.45 46.2266 105.382 46.5098 105.382 46.8304C105.382 47.1579 105.45 47.4479 105.587 47.7003C105.723 47.9459 105.907 48.1404 106.139 48.2837C106.378 48.4269 106.651 48.4986 106.958 48.4986ZM108.432 51.3027V48.0483L108.596 46.8611L108.432 45.6842V44.405H109.353V51.3027H108.432ZM112.658 49.3685C112.263 49.3685 111.905 49.2798 111.584 49.1024C111.27 48.9182 111.024 48.6657 110.847 48.3451C110.67 48.0244 110.581 47.6526 110.581 47.2296V44.405H111.502V47.1886C111.502 47.4547 111.546 47.6867 111.635 47.8845C111.731 48.0756 111.867 48.2223 112.044 48.3246C112.222 48.4269 112.43 48.4781 112.669 48.4781C113.03 48.4781 113.313 48.3655 113.518 48.1404C113.723 47.9084 113.825 47.5912 113.825 47.1886V44.405H114.746V47.2296C114.746 47.6526 114.658 48.0244 114.48 48.3451C114.303 48.6657 114.057 48.9182 113.743 49.1024C113.436 49.2798 113.075 49.3685 112.658 49.3685ZM115.991 49.2661V44.405H116.912V49.2661H115.991ZM116.451 43.4328C116.281 43.4328 116.141 43.3782 116.032 43.269C115.923 43.1531 115.868 43.0098 115.868 42.8392C115.868 42.6755 115.923 42.539 116.032 42.4299C116.141 42.3139 116.281 42.2559 116.451 42.2559C116.622 42.2559 116.762 42.3139 116.871 42.4299C116.98 42.539 117.035 42.6755 117.035 42.8392C117.035 43.0098 116.98 43.1531 116.871 43.269C116.762 43.3782 116.622 43.4328 116.451 43.4328ZM120.49 49.3685C120.012 49.3685 119.579 49.2559 119.19 49.0307C118.808 48.8056 118.505 48.502 118.28 48.1199C118.061 47.731 117.952 47.3012 117.952 46.8304C117.952 46.3529 118.061 45.923 118.28 45.541C118.505 45.1589 118.808 44.8587 119.19 44.6404C119.579 44.4152 120.012 44.3027 120.49 44.3027C120.865 44.3027 121.213 44.3743 121.534 44.5176C121.855 44.654 122.131 44.8553 122.363 45.1214L121.749 45.7354C121.599 45.558 121.415 45.425 121.196 45.3363C120.985 45.2408 120.749 45.193 120.49 45.193C120.183 45.193 119.91 45.2647 119.671 45.4079C119.433 45.5444 119.245 45.7354 119.108 45.981C118.972 46.2266 118.904 46.5098 118.904 46.8304C118.904 47.1511 118.972 47.4342 119.108 47.6799C119.245 47.9255 119.433 48.1199 119.671 48.2632C119.91 48.4065 120.183 48.4781 120.49 48.4781C120.749 48.4781 120.985 48.4338 121.196 48.3451C121.415 48.2495 121.602 48.1131 121.759 47.9357L122.363 48.5497C122.138 48.809 121.861 49.0103 121.534 49.1535C121.213 49.2968 120.865 49.3685 120.49 49.3685ZM126.387 49.2661L124.116 46.7793L126.367 44.405H127.482L124.975 47.0249L125.016 46.4927L127.575 49.2661H126.387ZM123.276 49.2661V41.9591H124.197V49.2661H123.276ZM132.559 49.3685C132.109 49.3685 131.706 49.2593 131.351 49.041C130.997 48.8158 130.714 48.5122 130.502 48.1301C130.297 47.7481 130.195 47.3183 130.195 46.8407C130.195 46.3631 130.297 45.9333 130.502 45.5512C130.714 45.1691 130.997 44.8655 131.351 44.6404C131.706 44.4152 132.109 44.3027 132.559 44.3027C132.921 44.3027 133.248 44.3811 133.542 44.538C133.835 44.6881 134.07 44.8996 134.248 45.1725C134.432 45.4386 134.534 45.7491 134.555 46.1038V47.5673C134.534 47.9152 134.435 48.2257 134.258 48.4986C134.081 48.7715 133.845 48.9864 133.552 49.1433C133.258 49.2934 132.927 49.3685 132.559 49.3685ZM132.713 48.4986C133.02 48.4986 133.286 48.4269 133.511 48.2837C133.743 48.1404 133.924 47.9459 134.053 47.7003C134.183 47.4479 134.248 47.1613 134.248 46.8407C134.248 46.5064 134.179 46.2164 134.043 45.9708C133.913 45.7252 133.733 45.5307 133.501 45.3875C133.275 45.2442 133.009 45.1725 132.702 45.1725C132.395 45.1725 132.126 45.2442 131.894 45.3875C131.662 45.5307 131.478 45.7286 131.341 45.981C131.212 46.2266 131.147 46.5098 131.147 46.8304C131.147 47.1579 131.212 47.4479 131.341 47.7003C131.478 47.9459 131.662 48.1404 131.894 48.2837C132.133 48.4269 132.406 48.4986 132.713 48.4986ZM135.118 49.2661H134.186V47.9562L134.36 46.769L134.186 45.5921V41.9591H135.118V49.2661ZM138.71 49.3685C138.226 49.3685 137.789 49.2593 137.4 49.041C137.011 48.8158 136.704 48.5122 136.479 48.1301C136.254 47.7481 136.141 47.3148 136.141 46.8304C136.141 46.3529 136.25 45.923 136.469 45.541C136.694 45.1589 136.994 44.8587 137.369 44.6404C137.751 44.4152 138.178 44.3027 138.649 44.3027C139.099 44.3027 139.495 44.405 139.836 44.6097C140.184 44.8144 140.453 45.0975 140.644 45.4591C140.842 45.8207 140.941 46.2301 140.941 46.6872C140.941 46.7554 140.938 46.8304 140.931 46.9123C140.924 46.9874 140.91 47.0761 140.89 47.1784H136.786V46.4108H140.399L140.061 46.7076C140.061 46.3801 140.003 46.1038 139.887 45.8787C139.771 45.6467 139.607 45.4693 139.396 45.3465C139.184 45.2169 138.928 45.1521 138.628 45.1521C138.314 45.1521 138.038 45.2203 137.799 45.3568C137.56 45.4932 137.376 45.6842 137.247 45.9299C137.117 46.1755 137.052 46.4654 137.052 46.7997C137.052 47.1409 137.12 47.4411 137.257 47.7003C137.393 47.9528 137.588 48.1506 137.84 48.2939C138.093 48.4303 138.382 48.4986 138.71 48.4986C138.983 48.4986 139.232 48.4508 139.457 48.3553C139.689 48.2598 139.887 48.1165 140.051 47.9255L140.644 48.5293C140.412 48.8022 140.126 49.0103 139.785 49.1535C139.45 49.2968 139.092 49.3685 138.71 49.3685ZM143.491 49.3685C143.218 49.3685 142.958 49.3343 142.713 49.2661C142.474 49.1911 142.252 49.0887 142.048 48.9591C141.843 48.8226 141.666 48.6623 141.515 48.4781L142.109 47.8845C142.286 48.1029 142.491 48.2666 142.723 48.3758C142.955 48.4781 143.214 48.5293 143.501 48.5293C143.787 48.5293 144.009 48.4815 144.166 48.386C144.323 48.2837 144.401 48.1438 144.401 47.9664C144.401 47.789 144.337 47.6526 144.207 47.557C144.084 47.4547 143.924 47.3728 143.726 47.3114C143.528 47.2432 143.317 47.1784 143.091 47.117C142.873 47.0488 142.665 46.9635 142.467 46.8611C142.269 46.7588 142.106 46.6189 141.976 46.4416C141.853 46.2642 141.792 46.0288 141.792 45.7354C141.792 45.442 141.863 45.1896 142.007 44.9781C142.15 44.7598 142.348 44.5926 142.6 44.4766C142.859 44.3607 143.17 44.3027 143.532 44.3027C143.914 44.3027 144.251 44.3709 144.545 44.5073C144.845 44.637 145.09 44.8348 145.282 45.1009L144.688 45.6945C144.551 45.5171 144.381 45.3806 144.176 45.2851C143.978 45.1896 143.753 45.1418 143.501 45.1418C143.235 45.1418 143.03 45.1896 142.887 45.2851C142.75 45.3738 142.682 45.5 142.682 45.6638C142.682 45.8275 142.743 45.9537 142.866 46.0424C142.989 46.1311 143.149 46.2062 143.347 46.2676C143.552 46.329 143.763 46.3938 143.982 46.462C144.2 46.5234 144.408 46.6087 144.606 46.7179C144.804 46.827 144.964 46.9737 145.087 47.1579C145.217 47.3421 145.282 47.5843 145.282 47.8845C145.282 48.3416 145.118 48.7032 144.79 48.9693C144.47 49.2354 144.036 49.3685 143.491 49.3685ZM148.533 49.3685C148.056 49.3685 147.623 49.2559 147.234 49.0307C146.852 48.8056 146.548 48.502 146.323 48.1199C146.105 47.731 145.995 47.3012 145.995 46.8304C145.995 46.3529 146.105 45.923 146.323 45.541C146.548 45.1589 146.852 44.8587 147.234 44.6404C147.623 44.4152 148.056 44.3027 148.533 44.3027C148.909 44.3027 149.257 44.3743 149.577 44.5176C149.898 44.654 150.174 44.8553 150.406 45.1214L149.792 45.7354C149.642 45.558 149.458 45.425 149.24 45.3363C149.028 45.2408 148.793 45.193 148.533 45.193C148.226 45.193 147.953 45.2647 147.715 45.4079C147.476 45.5444 147.288 45.7354 147.152 45.981C147.015 46.2266 146.947 46.5098 146.947 46.8304C146.947 47.1511 147.015 47.4342 147.152 47.6799C147.288 47.9255 147.476 48.1199 147.715 48.2632C147.953 48.4065 148.226 48.4781 148.533 48.4781C148.793 48.4781 149.028 48.4338 149.24 48.3451C149.458 48.2495 149.645 48.1131 149.802 47.9357L150.406 48.5497C150.181 48.809 149.905 49.0103 149.577 49.1535C149.257 49.2968 148.909 49.3685 148.533 49.3685ZM151.32 49.2661V44.405H152.241V49.2661H151.32ZM152.241 46.4927L151.893 46.3392C151.893 45.7184 152.036 45.2237 152.323 44.8553C152.609 44.4869 153.022 44.3027 153.561 44.3027C153.807 44.3027 154.028 44.347 154.226 44.4357C154.424 44.5176 154.608 44.6574 154.779 44.8553L154.175 45.4796C154.073 45.3704 153.96 45.2919 153.837 45.2442C153.714 45.1964 153.571 45.1725 153.407 45.1725C153.066 45.1725 152.787 45.2817 152.568 45.5C152.35 45.7184 152.241 46.0493 152.241 46.4927ZM155.437 49.2661V44.405H156.359V49.2661H155.437ZM155.898 43.4328C155.727 43.4328 155.588 43.3782 155.478 43.269C155.369 43.1531 155.315 43.0098 155.315 42.8392C155.315 42.6755 155.369 42.539 155.478 42.4299C155.588 42.3139 155.727 42.2559 155.898 42.2559C156.069 42.2559 156.208 42.3139 156.318 42.4299C156.427 42.539 156.481 42.6755 156.481 42.8392C156.481 43.0098 156.427 43.1531 156.318 43.269C156.208 43.3782 156.069 43.4328 155.898 43.4328ZM160.274 49.3685C159.906 49.3685 159.572 49.2934 159.271 49.1433C158.978 48.9864 158.743 48.7715 158.565 48.4986C158.388 48.2257 158.289 47.9152 158.269 47.5673V46.1038C158.289 45.7491 158.388 45.4386 158.565 45.1725C158.75 44.8996 158.988 44.6881 159.282 44.538C159.582 44.3811 159.913 44.3027 160.274 44.3027C160.718 44.3027 161.117 44.4152 161.472 44.6404C161.833 44.8655 162.116 45.1691 162.321 45.5512C162.526 45.9333 162.628 46.3631 162.628 46.8407C162.628 47.3183 162.526 47.7481 162.321 48.1301C162.116 48.5122 161.833 48.8158 161.472 49.041C161.117 49.2593 160.718 49.3685 160.274 49.3685ZM160.121 48.4986C160.428 48.4986 160.697 48.4269 160.929 48.2837C161.161 48.1404 161.346 47.9459 161.482 47.7003C161.618 47.4479 161.687 47.1579 161.687 46.8304C161.687 46.5098 161.618 46.2232 161.482 45.9708C161.346 45.7184 161.161 45.5239 160.929 45.3875C160.697 45.2442 160.431 45.1725 160.131 45.1725C159.824 45.1725 159.555 45.2442 159.323 45.3875C159.091 45.5239 158.91 45.7184 158.78 45.9708C158.651 46.2232 158.586 46.5132 158.586 46.8407C158.586 47.1613 158.647 47.4479 158.77 47.7003C158.9 47.9459 159.08 48.1404 159.312 48.2837C159.551 48.4269 159.821 48.4986 160.121 48.4986ZM157.716 51.3027V44.405H158.637V45.6842L158.463 46.8611L158.637 48.0483V51.3027H157.716ZM164.269 49.2661V42.3685H165.191V49.2661H164.269ZM163.072 45.2442V44.405H166.388V45.2442H163.072ZM167.3 49.2661V44.405H168.221V49.2661H167.3ZM167.761 43.4328C167.59 43.4328 167.451 43.3782 167.341 43.269C167.232 43.1531 167.178 43.0098 167.178 42.8392C167.178 42.6755 167.232 42.539 167.341 42.4299C167.451 42.3139 167.59 42.2559 167.761 42.2559C167.932 42.2559 168.071 42.3139 168.181 42.4299C168.29 42.539 168.344 42.6755 168.344 42.8392C168.344 43.0098 168.29 43.1531 168.181 43.269C168.071 43.3782 167.932 43.4328 167.761 43.4328ZM171.8 49.3685C171.322 49.3685 170.892 49.2559 170.51 49.0307C170.128 48.8056 169.824 48.502 169.599 48.1199C169.374 47.731 169.262 47.2978 169.262 46.8202C169.262 46.3494 169.374 45.9264 169.599 45.5512C169.824 45.1691 170.128 44.8655 170.51 44.6404C170.892 44.4152 171.322 44.3027 171.8 44.3027C172.27 44.3027 172.697 44.4152 173.079 44.6404C173.468 44.8587 173.775 45.1589 174 45.541C174.225 45.923 174.338 46.3494 174.338 46.8202C174.338 47.2978 174.225 47.731 174 48.1199C173.775 48.502 173.468 48.8056 173.079 49.0307C172.697 49.2559 172.27 49.3685 171.8 49.3685ZM171.8 48.4781C172.107 48.4781 172.38 48.4065 172.618 48.2632C172.857 48.1199 173.045 47.9255 173.181 47.6799C173.318 47.4274 173.386 47.1409 173.386 46.8202C173.386 46.5064 173.314 46.2266 173.171 45.981C173.034 45.7354 172.847 45.5444 172.608 45.4079C172.376 45.2647 172.107 45.193 171.8 45.193C171.493 45.193 171.22 45.2647 170.981 45.4079C170.742 45.5444 170.554 45.7354 170.418 45.981C170.282 46.2266 170.213 46.5064 170.213 46.8202C170.213 47.1409 170.282 47.4274 170.418 47.6799C170.554 47.9255 170.742 48.1199 170.981 48.2632C171.22 48.4065 171.493 48.4781 171.8 48.4781ZM178.814 49.2661V46.4313C178.814 46.0629 178.698 45.7593 178.466 45.5205C178.234 45.2817 177.934 45.1623 177.565 45.1623C177.32 45.1623 177.101 45.2169 176.91 45.3261C176.719 45.4352 176.569 45.5853 176.46 45.7763C176.351 45.9674 176.296 46.1857 176.296 46.4313L175.918 46.2164C175.918 45.848 176 45.5205 176.163 45.2339C176.327 44.9474 176.556 44.7223 176.849 44.5585C177.142 44.3879 177.473 44.3027 177.842 44.3027C178.21 44.3027 178.534 44.3948 178.814 44.579C179.101 44.7632 179.326 45.0054 179.489 45.3056C179.653 45.599 179.735 45.9128 179.735 46.2471V49.2661H178.814ZM175.375 49.2661V44.405H176.296V49.2661H175.375ZM185.178 49.3685C184.735 49.3685 184.332 49.2593 183.97 49.041C183.609 48.8158 183.322 48.5122 183.111 48.1301C182.906 47.7481 182.804 47.3183 182.804 46.8407C182.804 46.3631 182.906 45.9333 183.111 45.5512C183.322 45.1691 183.605 44.8655 183.96 44.6404C184.322 44.4152 184.728 44.3027 185.178 44.3027C185.546 44.3027 185.874 44.3811 186.16 44.538C186.454 44.6881 186.689 44.8996 186.867 45.1725C187.044 45.4386 187.143 45.7491 187.163 46.1038V47.5673C187.143 47.9152 187.044 48.2257 186.867 48.4986C186.696 48.7715 186.464 48.9864 186.171 49.1433C185.884 49.2934 185.553 49.3685 185.178 49.3685ZM185.332 48.4986C185.789 48.4986 186.157 48.3451 186.437 48.038C186.717 47.7242 186.856 47.3251 186.856 46.8407C186.856 46.5064 186.792 46.2164 186.662 45.9708C186.539 45.7184 186.362 45.5239 186.13 45.3875C185.898 45.2442 185.628 45.1725 185.321 45.1725C185.014 45.1725 184.741 45.2442 184.503 45.3875C184.271 45.5307 184.086 45.7286 183.95 45.981C183.82 46.2266 183.756 46.5098 183.756 46.8304C183.756 47.1579 183.82 47.4479 183.95 47.7003C184.086 47.9459 184.274 48.1404 184.513 48.2837C184.752 48.4269 185.025 48.4986 185.332 48.4986ZM186.795 49.2661V47.9562L186.969 46.769L186.795 45.5921V44.405H187.726V49.2661H186.795ZM191.626 49.3685C191.257 49.3685 190.923 49.2934 190.623 49.1433C190.329 48.9864 190.094 48.7715 189.917 48.4986C189.739 48.2257 189.64 47.9152 189.62 47.5673V46.1038C189.64 45.7491 189.739 45.4386 189.917 45.1725C190.101 44.8996 190.34 44.6881 190.633 44.538C190.933 44.3811 191.264 44.3027 191.626 44.3027C192.069 44.3027 192.468 44.4152 192.823 44.6404C193.185 44.8655 193.468 45.1691 193.673 45.5512C193.877 45.9333 193.98 46.3631 193.98 46.8407C193.98 47.3183 193.877 47.7481 193.673 48.1301C193.468 48.5122 193.185 48.8158 192.823 49.041C192.468 49.2593 192.069 49.3685 191.626 49.3685ZM191.472 48.4986C191.779 48.4986 192.049 48.4269 192.281 48.2837C192.513 48.1404 192.697 47.9459 192.833 47.7003C192.97 47.4479 193.038 47.1579 193.038 46.8304C193.038 46.5098 192.97 46.2232 192.833 45.9708C192.697 45.7184 192.513 45.5239 192.281 45.3875C192.049 45.2442 191.783 45.1725 191.482 45.1725C191.175 45.1725 190.906 45.2442 190.674 45.3875C190.442 45.5239 190.261 45.7184 190.132 45.9708C190.002 46.2232 189.937 46.5132 189.937 46.8407C189.937 47.1613 189.999 47.4479 190.121 47.7003C190.251 47.9459 190.432 48.1404 190.664 48.2837C190.903 48.4269 191.172 48.4986 191.472 48.4986ZM189.067 49.2661V41.9591H189.988V45.5921L189.814 46.769L189.988 47.9562V49.2661H189.067ZM197.244 49.3685C196.767 49.3685 196.337 49.2559 195.955 49.0307C195.573 48.8056 195.269 48.502 195.044 48.1199C194.819 47.731 194.706 47.2978 194.706 46.8202C194.706 46.3494 194.819 45.9264 195.044 45.5512C195.269 45.1691 195.573 44.8655 195.955 44.6404C196.337 44.4152 196.767 44.3027 197.244 44.3027C197.715 44.3027 198.142 44.4152 198.524 44.6404C198.913 44.8587 199.22 45.1589 199.445 45.541C199.67 45.923 199.782 46.3494 199.782 46.8202C199.782 47.2978 199.67 47.731 199.445 48.1199C199.22 48.502 198.913 48.8056 198.524 49.0307C198.142 49.2559 197.715 49.3685 197.244 49.3685ZM197.244 48.4781C197.551 48.4781 197.824 48.4065 198.063 48.2632C198.302 48.1199 198.49 47.9255 198.626 47.6799C198.762 47.4274 198.831 47.1409 198.831 46.8202C198.831 46.5064 198.759 46.2266 198.616 45.981C198.479 45.7354 198.292 45.5444 198.053 45.4079C197.821 45.2647 197.551 45.193 197.244 45.193C196.937 45.193 196.665 45.2647 196.426 45.4079C196.187 45.5444 195.999 45.7354 195.863 45.981C195.726 46.2266 195.658 46.5064 195.658 46.8202C195.658 47.1409 195.726 47.4274 195.863 47.6799C195.999 47.9255 196.187 48.1199 196.426 48.2632C196.665 48.4065 196.937 48.4781 197.244 48.4781ZM202.775 49.3685C202.379 49.3685 202.021 49.2798 201.7 49.1024C201.387 48.9182 201.141 48.6657 200.964 48.3451C200.786 48.0244 200.697 47.6526 200.697 47.2296V44.405H201.619V47.1886C201.619 47.4547 201.663 47.6867 201.752 47.8845C201.847 48.0756 201.984 48.2223 202.161 48.3246C202.338 48.4269 202.546 48.4781 202.785 48.4781C203.147 48.4781 203.43 48.3655 203.635 48.1404C203.839 47.9084 203.942 47.5912 203.942 47.1886V44.405H204.863V47.2296C204.863 47.6526 204.774 48.0244 204.597 48.3451C204.419 48.6657 204.174 48.9182 203.86 49.1024C203.553 49.2798 203.191 49.3685 202.775 49.3685ZM206.844 49.2661V42.3685H207.765V49.2661H206.844ZM205.647 45.2442V44.405H208.963V45.2442H205.647ZM212.741 49.2661V42.3685H213.662V49.2661H212.741ZM211.543 45.2442V44.405H214.859V45.2442H211.543ZM219.2 49.2661V46.4313C219.2 46.0629 219.084 45.7593 218.852 45.5205C218.62 45.2817 218.32 45.1623 217.951 45.1623C217.706 45.1623 217.487 45.2169 217.296 45.3261C217.105 45.4352 216.955 45.5853 216.846 45.7763C216.737 45.9674 216.682 46.1857 216.682 46.4313L216.304 46.2164C216.304 45.848 216.386 45.5205 216.549 45.2339C216.713 44.9474 216.942 44.7223 217.235 44.5585C217.528 44.3879 217.859 44.3027 218.228 44.3027C218.596 44.3027 218.92 44.3845 219.2 44.5483C219.487 44.712 219.712 44.9406 219.875 45.2339C220.039 45.5273 220.121 45.865 220.121 46.2471V49.2661H219.2ZM215.761 49.2661V41.9591H216.682V49.2661H215.761ZM223.619 49.3685C223.135 49.3685 222.698 49.2593 222.31 49.041C221.921 48.8158 221.614 48.5122 221.389 48.1301C221.163 47.7481 221.051 47.3148 221.051 46.8304C221.051 46.3529 221.16 45.923 221.378 45.541C221.603 45.1589 221.904 44.8587 222.279 44.6404C222.661 44.4152 223.087 44.3027 223.558 44.3027C224.008 44.3027 224.404 44.405 224.745 44.6097C225.093 44.8144 225.363 45.0975 225.554 45.4591C225.752 45.8207 225.85 46.2301 225.85 46.6872C225.85 46.7554 225.847 46.8304 225.84 46.9123C225.833 46.9874 225.82 47.0761 225.799 47.1784H221.696V46.4108H225.308L224.97 46.7076C224.97 46.3801 224.912 46.1038 224.796 45.8787C224.68 45.6467 224.517 45.4693 224.305 45.3465C224.094 45.2169 223.838 45.1521 223.538 45.1521C223.224 45.1521 222.947 45.2203 222.709 45.3568C222.47 45.4932 222.286 45.6842 222.156 45.9299C222.026 46.1755 221.962 46.4654 221.962 46.7997C221.962 47.1409 222.03 47.4411 222.166 47.7003C222.303 47.9528 222.497 48.1506 222.75 48.2939C223.002 48.4303 223.292 48.4986 223.619 48.4986C223.892 48.4986 224.141 48.4508 224.367 48.3553C224.599 48.2598 224.796 48.1165 224.96 47.9255L225.554 48.5293C225.322 48.8022 225.035 49.0103 224.694 49.1535C224.36 49.2968 224.002 49.3685 223.619 49.3685ZM231.204 49.3685C230.727 49.3685 230.293 49.2559 229.905 49.0307C229.522 48.8056 229.219 48.502 228.994 48.1199C228.775 47.731 228.666 47.3012 228.666 46.8304C228.666 46.3529 228.775 45.923 228.994 45.541C229.219 45.1589 229.522 44.8587 229.905 44.6404C230.293 44.4152 230.727 44.3027 231.204 44.3027C231.58 44.3027 231.927 44.3743 232.248 44.5176C232.569 44.654 232.845 44.8553 233.077 45.1214L232.463 45.7354C232.313 45.558 232.129 45.425 231.91 45.3363C231.699 45.2408 231.464 45.193 231.204 45.193C230.897 45.193 230.624 45.2647 230.386 45.4079C230.147 45.5444 229.959 45.7354 229.823 45.981C229.686 46.2266 229.618 46.5098 229.618 46.8304C229.618 47.1511 229.686 47.4342 229.823 47.6799C229.959 47.9255 230.147 48.1199 230.386 48.2632C230.624 48.4065 230.897 48.4781 231.204 48.4781C231.464 48.4781 231.699 48.4338 231.91 48.3451C232.129 48.2495 232.316 48.1131 232.473 47.9357L233.077 48.5497C232.852 48.809 232.576 49.0103 232.248 49.1535C231.927 49.2968 231.58 49.3685 231.204 49.3685ZM236.111 49.3685C235.634 49.3685 235.204 49.2559 234.822 49.0307C234.44 48.8056 234.136 48.502 233.911 48.1199C233.686 47.731 233.573 47.2978 233.573 46.8202C233.573 46.3494 233.686 45.9264 233.911 45.5512C234.136 45.1691 234.44 44.8655 234.822 44.6404C235.204 44.4152 235.634 44.3027 236.111 44.3027C236.582 44.3027 237.009 44.4152 237.391 44.6404C237.779 44.8587 238.087 45.1589 238.312 45.541C238.537 45.923 238.649 46.3494 238.649 46.8202C238.649 47.2978 238.537 47.731 238.312 48.1199C238.087 48.502 237.779 48.8056 237.391 49.0307C237.009 49.2559 236.582 49.3685 236.111 49.3685ZM236.111 48.4781C236.418 48.4781 236.691 48.4065 236.93 48.2632C237.169 48.1199 237.356 47.9255 237.493 47.6799C237.629 47.4274 237.698 47.1409 237.698 46.8202C237.698 46.5064 237.626 46.2266 237.483 45.981C237.346 45.7354 237.159 45.5444 236.92 45.4079C236.688 45.2647 236.418 45.193 236.111 45.193C235.804 45.193 235.531 45.2647 235.293 45.4079C235.054 45.5444 234.866 45.7354 234.73 45.981C234.593 46.2266 234.525 46.5064 234.525 46.8202C234.525 47.1409 234.593 47.4274 234.73 47.6799C234.866 47.9255 235.054 48.1199 235.293 48.2632C235.531 48.4065 235.804 48.4781 236.111 48.4781ZM243.126 49.2661V46.4313C243.126 46.0629 243.01 45.7593 242.778 45.5205C242.546 45.2817 242.246 45.1623 241.877 45.1623C241.632 45.1623 241.413 45.2169 241.222 45.3261C241.031 45.4352 240.881 45.5853 240.772 45.7763C240.663 45.9674 240.608 46.1857 240.608 46.4313L240.23 46.2164C240.23 45.848 240.311 45.5205 240.475 45.2339C240.639 44.9474 240.867 44.7223 241.161 44.5585C241.454 44.3879 241.785 44.3027 242.154 44.3027C242.522 44.3027 242.846 44.3948 243.126 44.579C243.412 44.7632 243.637 45.0054 243.801 45.3056C243.965 45.599 244.047 45.9128 244.047 46.2471V49.2661H243.126ZM239.687 49.2661V44.405H240.608V49.2661H239.687ZM245.981 49.2661V42.3685H246.902V49.2661H245.981ZM244.784 45.2442V44.405H248.099V45.2442H244.784ZM251.103 49.3685C250.619 49.3685 250.182 49.2593 249.793 49.041C249.404 48.8158 249.097 48.5122 248.872 48.1301C248.647 47.7481 248.534 47.3148 248.534 46.8304C248.534 46.3529 248.644 45.923 248.862 45.541C249.087 45.1589 249.387 44.8587 249.763 44.6404C250.145 44.4152 250.571 44.3027 251.042 44.3027C251.492 44.3027 251.888 44.405 252.229 44.6097C252.577 44.8144 252.846 45.0975 253.037 45.4591C253.235 45.8207 253.334 46.2301 253.334 46.6872C253.334 46.7554 253.331 46.8304 253.324 46.9123C253.317 46.9874 253.303 47.0761 253.283 47.1784H249.179V46.4108H252.792L252.454 46.7076C252.454 46.3801 252.396 46.1038 252.28 45.8787C252.164 45.6467 252 45.4693 251.789 45.3465C251.577 45.2169 251.321 45.1521 251.021 45.1521C250.707 45.1521 250.431 45.2203 250.192 45.3568C249.954 45.4932 249.769 45.6842 249.64 45.9299C249.51 46.1755 249.445 46.4654 249.445 46.7997C249.445 47.1409 249.514 47.4411 249.65 47.7003C249.786 47.9528 249.981 48.1506 250.233 48.2939C250.486 48.4303 250.776 48.4986 251.103 48.4986C251.376 48.4986 251.625 48.4508 251.85 48.3553C252.082 48.2598 252.28 48.1165 252.444 47.9255L253.037 48.5293C252.805 48.8022 252.519 49.0103 252.178 49.1535C251.843 49.2968 251.485 49.3685 251.103 49.3685ZM257.777 49.2661V46.4313C257.777 46.0629 257.661 45.7593 257.429 45.5205C257.197 45.2817 256.897 45.1623 256.529 45.1623C256.283 45.1623 256.065 45.2169 255.874 45.3261C255.683 45.4352 255.532 45.5853 255.423 45.7763C255.314 45.9674 255.26 46.1857 255.26 46.4313L254.881 46.2164C254.881 45.848 254.963 45.5205 255.126 45.2339C255.29 44.9474 255.519 44.7223 255.812 44.5585C256.106 44.3879 256.436 44.3027 256.805 44.3027C257.173 44.3027 257.497 44.3948 257.777 44.579C258.064 44.7632 258.289 45.0054 258.452 45.3056C258.616 45.599 258.698 45.9128 258.698 46.2471V49.2661H257.777ZM254.338 49.2661V44.405H255.26V49.2661H254.338ZM260.632 49.2661V42.3685H261.553V49.2661H260.632ZM259.435 45.2442V44.405H262.751V45.2442H259.435ZM268.002 49.3685C267.525 49.3685 267.095 49.2559 266.713 49.0307C266.331 48.8056 266.027 48.502 265.802 48.1199C265.577 47.731 265.464 47.2978 265.464 46.8202C265.464 46.3494 265.577 45.9264 265.802 45.5512C266.027 45.1691 266.331 44.8655 266.713 44.6404C267.095 44.4152 267.525 44.3027 268.002 44.3027C268.473 44.3027 268.9 44.4152 269.282 44.6404C269.671 44.8587 269.978 45.1589 270.203 45.541C270.428 45.923 270.54 46.3494 270.54 46.8202C270.54 47.2978 270.428 47.731 270.203 48.1199C269.978 48.502 269.671 48.8056 269.282 49.0307C268.9 49.2559 268.473 49.3685 268.002 49.3685ZM268.002 48.4781C268.309 48.4781 268.582 48.4065 268.821 48.2632C269.06 48.1199 269.248 47.9255 269.384 47.6799C269.52 47.4274 269.589 47.1409 269.589 46.8202C269.589 46.5064 269.517 46.2266 269.374 45.981C269.237 45.7354 269.05 45.5444 268.811 45.4079C268.579 45.2647 268.309 45.193 268.002 45.193C267.695 45.193 267.422 45.2647 267.184 45.4079C266.945 45.5444 266.757 45.7354 266.621 45.981C266.484 46.2266 266.416 46.5064 266.416 46.8202C266.416 47.1409 266.484 47.4274 266.621 47.6799C266.757 47.9255 266.945 48.1199 267.184 48.2632C267.422 48.4065 267.695 48.4781 268.002 48.4781ZM272.124 49.2661V43.6784C272.124 43.3168 272.203 43.003 272.36 42.7369C272.516 42.464 272.731 42.2491 273.004 42.0921C273.284 41.9352 273.608 41.8568 273.977 41.8568C274.256 41.8568 274.498 41.9045 274.703 42C274.908 42.0955 275.095 42.2354 275.266 42.4196L274.662 43.0132C274.574 42.9177 274.475 42.846 274.365 42.7983C274.256 42.7437 274.123 42.7164 273.966 42.7164C273.673 42.7164 273.444 42.8017 273.281 42.9723C273.124 43.1428 273.045 43.3782 273.045 43.6784V49.2661H272.124ZM270.927 45.2442V44.405H274.591V45.2442H270.927ZM278.392 49.2661V42.3685H279.313V49.2661H278.392ZM277.194 45.2442V44.405H280.51V45.2442H277.194ZM284.851 49.2661V46.4313C284.851 46.0629 284.735 45.7593 284.503 45.5205C284.271 45.2817 283.971 45.1623 283.602 45.1623C283.357 45.1623 283.138 45.2169 282.947 45.3261C282.756 45.4352 282.606 45.5853 282.497 45.7763C282.388 45.9674 282.333 46.1857 282.333 46.4313L281.955 46.2164C281.955 45.848 282.037 45.5205 282.2 45.2339C282.364 44.9474 282.593 44.7223 282.886 44.5585C283.179 44.3879 283.51 44.3027 283.879 44.3027C284.247 44.3027 284.571 44.3845 284.851 44.5483C285.138 44.712 285.363 44.9406 285.526 45.2339C285.69 45.5273 285.772 45.865 285.772 46.2471V49.2661H284.851ZM281.412 49.2661V41.9591H282.333V49.2661H281.412ZM289.27 49.3685C288.786 49.3685 288.349 49.2593 287.961 49.041C287.572 48.8158 287.265 48.5122 287.039 48.1301C286.814 47.7481 286.702 47.3148 286.702 46.8304C286.702 46.3529 286.811 45.923 287.029 45.541C287.254 45.1589 287.555 44.8587 287.93 44.6404C288.312 44.4152 288.738 44.3027 289.209 44.3027C289.659 44.3027 290.055 44.405 290.396 44.6097C290.744 44.8144 291.014 45.0975 291.205 45.4591C291.403 45.8207 291.501 46.2301 291.501 46.6872C291.501 46.7554 291.498 46.8304 291.491 46.9123C291.484 46.9874 291.471 47.0761 291.45 47.1784H287.347V46.4108H290.959L290.621 46.7076C290.621 46.3801 290.563 46.1038 290.447 45.8787C290.331 45.6467 290.168 45.4693 289.956 45.3465C289.745 45.2169 289.489 45.1521 289.189 45.1521C288.875 45.1521 288.598 45.2203 288.36 45.3568C288.121 45.4932 287.937 45.6842 287.807 45.9299C287.677 46.1755 287.613 46.4654 287.613 46.7997C287.613 47.1409 287.681 47.4411 287.817 47.7003C287.954 47.9528 288.148 48.1506 288.401 48.2939C288.653 48.4303 288.943 48.4986 289.27 48.4986C289.543 48.4986 289.792 48.4508 290.018 48.3553C290.25 48.2598 290.447 48.1165 290.611 47.9255L291.205 48.5293C290.973 48.8022 290.686 49.0103 290.345 49.1535C290.011 49.2968 289.653 49.3685 289.27 49.3685ZM69.3005 62.3685C68.8229 62.3685 68.3897 62.2559 68.0008 62.0307C67.6187 61.8056 67.3151 61.502 67.09 61.1199C66.8716 60.731 66.7625 60.3012 66.7625 59.8304C66.7625 59.3529 66.8716 58.923 67.09 58.541C67.3151 58.1589 67.6187 57.8587 68.0008 57.6404C68.3897 57.4152 68.8229 57.3027 69.3005 57.3027C69.6757 57.3027 70.0237 57.3743 70.3444 57.5176C70.665 57.654 70.9413 57.8553 71.1733 58.1214L70.5593 58.7354C70.4092 58.558 70.225 58.425 70.0066 58.3363C69.7951 58.2408 69.5598 58.193 69.3005 58.193C68.9935 58.193 68.7206 58.2647 68.4818 58.4079C68.243 58.5444 68.0554 58.7354 67.9189 58.981C67.7825 59.2266 67.7142 59.5098 67.7142 59.8304C67.7142 60.1511 67.7825 60.4342 67.9189 60.6799C68.0554 60.9255 68.243 61.1199 68.4818 61.2632C68.7206 61.4065 68.9935 61.4781 69.3005 61.4781C69.5598 61.4781 69.7951 61.4338 70.0066 61.3451C70.225 61.2495 70.4126 61.1131 70.5695 60.9357L71.1733 61.5497C70.9482 61.809 70.6718 62.0103 70.3444 62.1535C70.0237 62.2968 69.6757 62.3685 69.3005 62.3685ZM74.2076 62.3685C73.73 62.3685 73.3002 62.2559 72.9181 62.0307C72.536 61.8056 72.2324 61.502 72.0073 61.1199C71.7821 60.731 71.6696 60.2978 71.6696 59.8202C71.6696 59.3494 71.7821 58.9264 72.0073 58.5512C72.2324 58.1691 72.536 57.8655 72.9181 57.6404C73.3002 57.4152 73.73 57.3027 74.2076 57.3027C74.6783 57.3027 75.1048 57.4152 75.4868 57.6404C75.8757 57.8587 76.1827 58.1589 76.4079 58.541C76.633 58.923 76.7456 59.3494 76.7456 59.8202C76.7456 60.2978 76.633 60.731 76.4079 61.1199C76.1827 61.502 75.8757 61.8056 75.4868 62.0307C75.1048 62.2559 74.6783 62.3685 74.2076 62.3685ZM74.2076 61.4781C74.5146 61.4781 74.7875 61.4065 75.0263 61.2632C75.2651 61.1199 75.4527 60.9255 75.5892 60.6799C75.7256 60.4274 75.7938 60.1409 75.7938 59.8202C75.7938 59.5064 75.7222 59.2266 75.5789 58.981C75.4425 58.7354 75.2549 58.5444 75.0161 58.4079C74.7841 58.2647 74.5146 58.193 74.2076 58.193C73.9006 58.193 73.6277 58.2647 73.3889 58.4079C73.1501 58.5444 72.9625 58.7354 72.826 58.981C72.6895 59.2266 72.6213 59.5064 72.6213 59.8202C72.6213 60.1409 72.6895 60.4274 72.826 60.6799C72.9625 60.9255 73.1501 61.1199 73.3889 61.2632C73.6277 61.4065 73.9006 61.4781 74.2076 61.4781ZM79.7381 62.3685C79.3423 62.3685 78.9842 62.2798 78.6635 62.1024C78.3497 61.9182 78.104 61.6657 77.9266 61.3451C77.7493 61.0244 77.6606 60.6526 77.6606 60.2296V57.405H78.5816V60.1886C78.5816 60.4547 78.626 60.6867 78.7147 60.8845C78.8102 61.0756 78.9466 61.2223 79.124 61.3246C79.3014 61.4269 79.5095 61.4781 79.7483 61.4781C80.1099 61.4781 80.393 61.3655 80.5977 61.1404C80.8024 60.9084 80.9047 60.5912 80.9047 60.1886V57.405H81.8258V60.2296C81.8258 60.6526 81.7371 61.0244 81.5597 61.3451C81.3823 61.6657 81.1367 61.9182 80.8228 62.1024C80.5158 62.2798 80.1542 62.3685 79.7381 62.3685ZM83.0602 62.2661V57.405H83.9813V62.2661H83.0602ZM83.9813 59.4927L83.6333 59.3392C83.6333 58.7184 83.7766 58.2237 84.0632 57.8553C84.3497 57.4869 84.7625 57.3027 85.3015 57.3027C85.5471 57.3027 85.7688 57.347 85.9667 57.4357C86.1645 57.5176 86.3487 57.6574 86.5193 57.8553L85.9155 58.4796C85.8132 58.3704 85.7006 58.2919 85.5778 58.2442C85.455 58.1964 85.3117 58.1725 85.148 58.1725C84.8068 58.1725 84.5271 58.2817 84.3088 58.5C84.0905 58.7184 83.9813 59.0493 83.9813 59.4927ZM88.6032 62.3685C88.3303 62.3685 88.071 62.3343 87.8254 62.2661C87.5866 62.1911 87.3649 62.0887 87.1602 61.9591C86.9555 61.8226 86.7781 61.6623 86.628 61.4781L87.2216 60.8845C87.399 61.1029 87.6037 61.2666 87.8356 61.3758C88.0676 61.4781 88.3269 61.5293 88.6134 61.5293C88.9 61.5293 89.1217 61.4815 89.2786 61.386C89.4355 61.2837 89.514 61.1438 89.514 60.9664C89.514 60.789 89.4492 60.6526 89.3196 60.557C89.1968 60.4547 89.0364 60.3728 88.8386 60.3114C88.6407 60.2432 88.4292 60.1784 88.2041 60.117C87.9857 60.0488 87.7776 59.9635 87.5798 59.8611C87.3819 59.7588 87.2182 59.6189 87.0886 59.4416C86.9658 59.2642 86.9044 59.0288 86.9044 58.7354C86.9044 58.442 86.976 58.1896 87.1193 57.9781C87.2625 57.7598 87.4604 57.5926 87.7128 57.4766C87.9721 57.3607 88.2825 57.3027 88.6441 57.3027C89.0262 57.3027 89.3639 57.3709 89.6573 57.5073C89.9575 57.637 90.2031 57.8348 90.3941 58.1009L89.8006 58.6945C89.6641 58.5171 89.4935 58.3806 89.2889 58.2851C89.091 58.1896 88.8659 58.1418 88.6134 58.1418C88.3473 58.1418 88.1427 58.1896 87.9994 58.2851C87.8629 58.3738 87.7947 58.5 87.7947 58.6638C87.7947 58.8275 87.8561 58.9537 87.9789 59.0424C88.1017 59.1311 88.2621 59.2062 88.4599 59.2676C88.6646 59.329 88.8761 59.3938 89.0944 59.462C89.3127 59.5234 89.5208 59.6087 89.7187 59.7179C89.9165 59.827 90.0769 59.9737 90.1997 60.1579C90.3293 60.3421 90.3941 60.5843 90.3941 60.8845C90.3941 61.3416 90.2304 61.7032 89.9029 61.9693C89.5822 62.2354 89.149 62.3685 88.6032 62.3685ZM93.6767 62.3685C93.1923 62.3685 92.7557 62.2593 92.3668 62.041C91.9779 61.8158 91.6709 61.5122 91.4457 61.1301C91.2206 60.7481 91.108 60.3148 91.108 59.8304C91.108 59.3529 91.2172 58.923 91.4355 58.541C91.6606 58.1589 91.9608 57.8587 92.3361 57.6404C92.7182 57.4152 93.1446 57.3027 93.6153 57.3027C94.0656 57.3027 94.4613 57.405 94.8025 57.6097C95.1504 57.8144 95.4199 58.0975 95.6109 58.4591C95.8088 58.8207 95.9077 59.2301 95.9077 59.6872C95.9077 59.7554 95.9043 59.8304 95.8975 59.9123C95.8907 59.9874 95.877 60.0761 95.8566 60.1784H91.7528V59.4108H95.3653L95.0276 59.7076C95.0276 59.3801 94.9696 59.1038 94.8536 58.8787C94.7376 58.6467 94.5739 58.4693 94.3624 58.3465C94.1509 58.2169 93.8951 58.1521 93.5949 58.1521C93.281 58.1521 93.0047 58.2203 92.7659 58.3568C92.5271 58.4932 92.3429 58.6842 92.2133 58.9299C92.0836 59.1755 92.0188 59.4654 92.0188 59.7997C92.0188 60.1409 92.0871 60.4411 92.2235 60.7003C92.36 60.9528 92.5544 61.1506 92.8068 61.2939C93.0593 61.4303 93.3492 61.4986 93.6767 61.4986C93.9496 61.4986 94.1987 61.4508 94.4238 61.3553C94.6558 61.2598 94.8536 61.1165 95.0174 60.9255L95.6109 61.5293C95.379 61.8022 95.0924 62.0103 94.7513 62.1535C94.417 62.2968 94.0588 62.3685 93.6767 62.3685ZM97.7205 62.3685C97.5295 62.3685 97.3691 62.3036 97.2395 62.174C97.1167 62.0376 97.0553 61.8772 97.0553 61.693C97.0553 61.502 97.1167 61.3451 97.2395 61.2223C97.3691 61.0926 97.5295 61.0278 97.7205 61.0278C97.9115 61.0278 98.0684 61.0926 98.1912 61.2223C98.3209 61.3451 98.3857 61.502 98.3857 61.693C98.3857 61.8772 98.3209 62.0376 98.1912 62.174C98.0684 62.3036 97.9115 62.3685 97.7205 62.3685ZM100.689 62.3685C100.498 62.3685 100.337 62.3036 100.208 62.174C100.085 62.0376 100.024 61.8772 100.024 61.693C100.024 61.502 100.085 61.3451 100.208 61.2223C100.337 61.0926 100.498 61.0278 100.689 61.0278C100.88 61.0278 101.037 61.0926 101.159 61.2223C101.289 61.3451 101.354 61.502 101.354 61.693C101.354 61.8772 101.289 62.0376 101.159 62.174C101.037 62.3036 100.88 62.3685 100.689 62.3685ZM103.657 62.3685C103.466 62.3685 103.306 62.3036 103.176 62.174C103.053 62.0376 102.992 61.8772 102.992 61.693C102.992 61.502 103.053 61.3451 103.176 61.2223C103.306 61.0926 103.466 61.0278 103.657 61.0278C103.848 61.0278 104.005 61.0926 104.128 61.2223C104.257 61.3451 104.322 61.502 104.322 61.693C104.322 61.8772 104.257 62.0376 104.128 62.174C104.005 62.3036 103.848 62.3685 103.657 62.3685Z" fill="#5C5B68"/>
<path d="M271.082 79.4026C272.966 79.4026 274.494 77.8753 274.494 75.9913C274.494 74.1072 272.966 72.58 271.082 72.58C269.198 72.58 267.671 74.1072 267.671 75.9913C267.671 77.8753 269.198 79.4026 271.082 79.4026Z" stroke="#5200FF" stroke-width="0.682261" stroke-linecap="round" stroke-linejoin="round"/>
<path d="M271.082 73.9445V75.9912L272.447 76.6735" stroke="#5200FF" stroke-width="0.682261" stroke-linecap="round" stroke-linejoin="round"/>
<path d="M279.539 78.5246L281.635 76.3141C281.848 76.0958 282.014 75.9075 282.134 75.7492C282.254 75.5854 282.339 75.4353 282.388 75.2989C282.442 75.1624 282.47 75.0205 282.47 74.8731C282.47 74.5839 282.377 74.3574 282.191 74.1936C282.006 74.0299 281.766 73.948 281.471 73.948C281.182 73.948 280.928 74.019 280.709 74.1609C280.491 74.2973 280.297 74.5102 280.128 74.7995L279.588 74.3492C279.812 73.978 280.082 73.6997 280.398 73.5141C280.715 73.323 281.081 73.2275 281.495 73.2275C281.845 73.2275 282.148 73.2958 282.404 73.4322C282.666 73.5687 282.868 73.7597 283.01 74.0053C283.152 74.2509 283.223 74.5375 283.223 74.865C283.223 75.0997 283.193 75.3098 283.133 75.4954C283.078 75.6809 282.977 75.872 282.83 76.0685C282.688 76.2595 282.489 76.4887 282.232 76.7562L280.538 78.5L279.539 78.5246ZM279.539 78.9913V78.5246L280.194 78.3036H283.354V78.9913H279.539ZM284.628 78.9913L286.757 73.7597L287.518 73.7843L285.439 78.9913H284.628ZM283.736 73.9971V73.3094H287.518V73.7843L287.183 73.9971H283.736ZM288.324 78.9913V75.1024H289.061V78.9913H288.324ZM290.952 78.9913V76.6416C290.952 76.3523 290.862 76.1258 290.682 75.962C290.507 75.7928 290.286 75.7082 290.019 75.7082C289.838 75.7082 289.677 75.7464 289.536 75.8229C289.394 75.8993 289.279 76.0057 289.192 76.1421C289.104 76.2786 289.061 76.4423 289.061 76.6334L288.758 76.486C288.758 76.1913 288.821 75.9347 288.946 75.7164C289.077 75.4981 289.254 75.3289 289.478 75.2088C289.702 75.0833 289.953 75.0205 290.231 75.0205C290.504 75.0205 290.75 75.0806 290.968 75.2006C291.192 75.3207 291.367 75.4899 291.492 75.7082C291.623 75.9266 291.689 76.1858 291.689 76.486V78.9913H290.952ZM293.58 78.9913V76.6416C293.58 76.3523 293.49 76.1258 293.31 75.962C293.135 75.7928 292.917 75.7082 292.655 75.7082C292.475 75.7082 292.311 75.7464 292.164 75.8229C292.022 75.8993 291.907 76.0057 291.82 76.1421C291.732 76.2786 291.689 76.4423 291.689 76.6334L291.271 76.486C291.288 76.1858 291.367 75.9293 291.509 75.7164C291.656 75.4981 291.844 75.3289 292.074 75.2088C292.303 75.0833 292.554 75.0205 292.827 75.0205C293.111 75.0205 293.364 75.0806 293.588 75.2006C293.812 75.3207 293.989 75.4899 294.12 75.7082C294.257 75.9266 294.325 76.1885 294.325 76.4942V78.9913H293.58ZM295.336 78.9913V75.1024H296.073V78.9913H295.336ZM295.704 74.3246C295.568 74.3246 295.456 74.2809 295.369 74.1936C295.281 74.1008 295.238 73.9862 295.238 73.8498C295.238 73.7188 295.281 73.6096 295.369 73.5223C295.456 73.4295 295.568 73.3831 295.704 73.3831C295.841 73.3831 295.953 73.4295 296.04 73.5223C296.127 73.6096 296.171 73.7188 296.171 73.8498C296.171 73.9862 296.127 74.1008 296.04 74.1936C295.953 74.2809 295.841 74.3246 295.704 74.3246ZM299.909 78.9913V76.7234C299.909 76.4287 299.817 76.1858 299.631 75.9948C299.446 75.8037 299.205 75.7082 298.911 75.7082C298.714 75.7082 298.539 75.7519 298.387 75.8392C298.234 75.9266 298.114 76.0466 298.026 76.1995C297.939 76.3523 297.895 76.5269 297.895 76.7234L297.593 76.5515C297.593 76.2568 297.658 75.9948 297.789 75.7655C297.92 75.5363 298.103 75.3562 298.338 75.2252C298.572 75.0887 298.837 75.0205 299.132 75.0205C299.426 75.0205 299.686 75.0942 299.909 75.2416C300.139 75.3889 300.319 75.5827 300.45 75.8229C300.581 76.0575 300.646 76.3086 300.646 76.5761V78.9913H299.909ZM297.159 78.9913V75.1024H297.895V78.9913H297.159Z" fill="#5200FF"/>
<g clip-path="url(#clip0_156_4624)">
<path d="M313.549 77.0147C314.868 77.0147 315.937 75.9456 315.937 74.6268C315.937 73.308 314.868 72.2389 313.549 72.2389C312.23 72.2389 311.161 73.308 311.161 74.6268C311.161 75.9456 312.23 77.0147 313.549 77.0147Z" stroke="#5200FF" stroke-width="0.682261" stroke-linecap="round" stroke-linejoin="round"/>
<path d="M312.257 76.636L311.845 79.7437L313.55 78.7203L315.256 79.7437L314.843 76.6326" stroke="#5200FF" stroke-width="0.682261" stroke-linecap="round" stroke-linejoin="round"/>
</g>
<path d="M323.154 78.9913V73.3094H323.915V78.9913H323.154ZM321.991 73.9971V73.3094H323.833V73.9971H321.991ZM326.598 79.0731C326.227 79.0731 325.888 79.0049 325.583 78.8685C325.282 78.7266 325.029 78.5219 324.821 78.2544L325.345 77.7305C325.471 77.9215 325.643 78.0743 325.861 78.1889C326.079 78.2981 326.322 78.3527 326.59 78.3527C326.841 78.3527 327.056 78.3063 327.236 78.2135C327.422 78.1152 327.567 77.9788 327.67 77.8041C327.78 77.6295 327.834 77.4275 327.834 77.1983C327.834 76.9636 327.78 76.7616 327.67 76.5924C327.567 76.4178 327.419 76.2841 327.228 76.1913C327.037 76.0985 326.811 76.0521 326.549 76.0521C326.45 76.0521 326.352 76.0603 326.254 76.0767C326.156 76.0876 326.06 76.1067 325.967 76.134L326.295 75.6919C326.399 75.6427 326.511 75.6045 326.631 75.5772C326.751 75.5499 326.871 75.5363 326.991 75.5363C327.296 75.5363 327.569 75.6073 327.81 75.7492C328.055 75.8911 328.249 76.0903 328.391 76.3468C328.538 76.6034 328.612 76.9008 328.612 77.2392C328.612 77.5995 328.525 77.9188 328.35 78.1971C328.181 78.47 327.946 78.6856 327.646 78.8439C327.346 78.9967 326.996 79.0731 326.598 79.0731ZM325.967 76.134V75.6673L327.629 73.7761L328.546 73.7679L326.835 75.7082L325.967 76.134ZM325.091 73.9971V73.3094H328.546V73.7679L327.875 73.9971H325.091ZM329.096 79.3188L331.372 72.9901H332.059L329.792 79.3188H329.096ZM332.441 78.5246L334.537 76.3141C334.75 76.0958 334.917 75.9075 335.037 75.7492C335.157 75.5854 335.241 75.4353 335.29 75.2989C335.345 75.1624 335.372 75.0205 335.372 74.8731C335.372 74.5839 335.279 74.3574 335.094 74.1936C334.908 74.0299 334.668 73.948 334.373 73.948C334.084 73.948 333.83 74.019 333.612 74.1609C333.394 74.2973 333.2 74.5102 333.031 74.7995L332.49 74.3492C332.714 73.978 332.984 73.6997 333.301 73.5141C333.617 73.323 333.983 73.2275 334.398 73.2275C334.747 73.2275 335.05 73.2958 335.307 73.4322C335.569 73.5687 335.771 73.7597 335.913 74.0053C336.055 74.2509 336.125 74.5375 336.125 74.865C336.125 75.0997 336.095 75.3098 336.035 75.4954C335.981 75.6809 335.88 75.872 335.733 76.0685C335.591 76.2595 335.391 76.4887 335.135 76.7562L333.44 78.5L332.441 78.5246ZM332.441 78.9913V78.5246L333.096 78.3036H336.256V78.9913H332.441ZM339.302 79.0731C338.876 79.0731 338.486 78.9531 338.131 78.7129C337.782 78.4728 337.504 78.1344 337.296 77.6977C337.089 77.2556 336.985 76.7371 336.985 76.1421C336.985 75.5472 337.086 75.0314 337.288 74.5948C337.496 74.1581 337.774 73.8225 338.123 73.5878C338.473 73.3476 338.857 73.2275 339.278 73.2275C339.709 73.2275 340.099 73.3476 340.448 73.5878C340.798 73.8225 341.073 74.1581 341.275 74.5948C341.483 75.0314 341.586 75.5499 341.586 76.1503C341.586 76.7453 341.483 77.2638 341.275 77.7059C341.073 78.1425 340.798 78.4809 340.448 78.7211C340.105 78.9558 339.722 79.0731 339.302 79.0731ZM339.286 78.3445C339.586 78.3445 339.848 78.2626 340.072 78.0989C340.301 77.9297 340.481 77.6813 340.612 77.3538C340.743 77.0264 340.809 76.6225 340.809 76.1421C340.809 75.6618 340.743 75.2607 340.612 74.9386C340.481 74.6112 340.301 74.3655 340.072 74.2018C339.843 74.0326 339.578 73.948 339.278 73.948C338.983 73.948 338.721 74.0326 338.492 74.2018C338.262 74.3655 338.082 74.6112 337.951 74.9386C337.826 75.2607 337.763 75.6618 337.763 76.1421C337.763 76.6225 337.826 77.0264 337.951 77.3538C338.082 77.6813 338.262 77.9297 338.492 78.0989C338.721 78.2626 338.986 78.3445 339.286 78.3445Z" fill="#5200FF"/>
<g clip-path="url(#clip1_156_4624)">
<path d="M23.7628 73.3792H18.9869C18.6101 73.3792 18.3047 73.6846 18.3047 74.0614V78.8372C18.3047 79.214 18.6101 79.5195 18.9869 79.5195H23.7628C24.1396 79.5195 24.445 79.214 24.445 78.8372V74.0614C24.445 73.6846 24.1396 73.3792 23.7628 73.3792Z" stroke="#989898" stroke-width="0.682261" stroke-linecap="round" stroke-linejoin="round"/>
<path d="M22.7383 72.6969V74.0614" stroke="#989898" stroke-width="0.682261" stroke-linecap="round" stroke-linejoin="round"/>
<path d="M20.0107 72.6969V74.0614" stroke="#989898" stroke-width="0.682261" stroke-linecap="round" stroke-linejoin="round"/>
<path d="M18.3047 75.4259H24.445" stroke="#989898" stroke-width="0.682261" stroke-linecap="round" stroke-linejoin="round"/>
</g>
<path d="M31.2398 79.1901C30.8141 79.1901 30.4239 79.07 30.0691 78.8299C29.7198 78.5897 29.4414 78.2513 29.234 77.8146C29.0266 77.3725 28.9229 76.854 28.9229 76.2591C28.9229 75.6642 29.0239 75.1484 29.2258 74.7117C29.4332 74.2751 29.7116 73.9394 30.0609 73.7047C30.4102 73.4646 30.795 73.3445 31.2153 73.3445C31.6465 73.3445 32.0367 73.4646 32.386 73.7047C32.7354 73.9394 33.011 74.2751 33.2129 74.7117C33.4203 75.1484 33.5241 75.6669 33.5241 76.2673C33.5241 76.8622 33.4203 77.3807 33.2129 77.8228C33.011 78.2595 32.7354 78.5979 32.386 78.838C32.0422 79.0727 31.6601 79.1901 31.2398 79.1901ZM31.2235 78.4614C31.5237 78.4614 31.7856 78.3796 32.0094 78.2158C32.2387 78.0466 32.4188 77.7983 32.5498 77.4708C32.6808 77.1433 32.7463 76.7394 32.7463 76.2591C32.7463 75.7788 32.6808 75.3776 32.5498 75.0556C32.4188 74.7281 32.2387 74.4825 32.0094 74.3187C31.7802 74.1495 31.5155 74.0649 31.2153 74.0649C30.9205 74.0649 30.6586 74.1495 30.4293 74.3187C30.2001 74.4825 30.02 74.7281 29.889 75.0556C29.7634 75.3776 29.7007 75.7788 29.7007 76.2591C29.7007 76.7394 29.7634 77.1433 29.889 77.4708C30.02 77.7983 30.2001 78.0466 30.4293 78.2158C30.6586 78.3796 30.9233 78.4614 31.2235 78.4614ZM34.7453 79.1082L36.8739 73.8766L37.6353 73.9012L35.5558 79.1082H34.7453ZM33.8529 74.1141V73.4263H37.6353V73.9012L37.2997 74.1141H33.8529ZM38.0151 79.4357L40.2912 73.107H40.9789L38.711 79.4357H38.0151ZM42.507 79.1082V73.4263H43.2684V79.1082H42.507ZM41.3444 74.1141V73.4263H43.1865V74.1141H41.3444ZM46.6307 79.1901C46.205 79.1901 45.8147 79.07 45.4599 78.8299C45.1106 78.5897 44.8323 78.2513 44.6248 77.8146C44.4174 77.3725 44.3137 76.854 44.3137 76.2591C44.3137 75.6642 44.4147 75.1484 44.6167 74.7117C44.8241 74.2751 45.1024 73.9394 45.4517 73.7047C45.8011 73.4646 46.1859 73.3445 46.6061 73.3445C47.0373 73.3445 47.4276 73.4646 47.7769 73.7047C48.1262 73.9394 48.4018 74.2751 48.6038 74.7117C48.8112 75.1484 48.9149 75.6669 48.9149 76.2673C48.9149 76.8622 48.8112 77.3807 48.6038 77.8228C48.4018 78.2595 48.1262 78.5979 47.7769 78.838C47.433 79.0727 47.051 79.1901 46.6307 79.1901ZM46.6143 78.4614C46.9145 78.4614 47.1765 78.3796 47.4003 78.2158C47.6295 78.0466 47.8096 77.7983 47.9406 77.4708C48.0716 77.1433 48.1371 76.7394 48.1371 76.2591C48.1371 75.7788 48.0716 75.3776 47.9406 75.0556C47.8096 74.7281 47.6295 74.4825 47.4003 74.3187C47.171 74.1495 46.9063 74.0649 46.6061 74.0649C46.3114 74.0649 46.0494 74.1495 45.8202 74.3187C45.5909 74.4825 45.4108 74.7281 45.2798 75.0556C45.1543 75.3776 45.0915 75.7788 45.0915 76.2591C45.0915 76.7394 45.1543 77.1433 45.2798 77.4708C45.4108 77.7983 45.5909 78.0466 45.8202 78.2158C46.0494 78.3796 46.3141 78.4614 46.6143 78.4614ZM49.4164 79.4357L51.6924 73.107H52.3801L50.1123 79.4357H49.4164ZM52.762 78.6415L54.8579 76.431C55.0708 76.2127 55.2373 76.0244 55.3573 75.8661C55.4774 75.7024 55.562 75.5523 55.6112 75.4158C55.6657 75.2794 55.693 75.1375 55.693 74.9901C55.693 74.7008 55.6002 74.4743 55.4147 74.3106C55.2291 74.1468 54.9889 74.0649 54.6942 74.0649C54.4049 74.0649 54.1511 74.1359 53.9328 74.2778C53.7145 74.4143 53.5207 74.6271 53.3515 74.9164L52.8112 74.4661C53.0349 74.095 53.3051 73.8166 53.6217 73.631C53.9382 73.44 54.3039 73.3445 54.7188 73.3445C55.0681 73.3445 55.371 73.4127 55.6275 73.5492C55.8895 73.6856 56.0915 73.8766 56.2334 74.1223C56.3753 74.3679 56.4462 74.6544 56.4462 74.9819C56.4462 75.2166 56.4162 75.4267 56.3562 75.6123C56.3016 75.7979 56.2006 75.9889 56.0533 76.1854C55.9113 76.3764 55.7121 76.6057 55.4556 76.8731L53.7609 78.617L52.762 78.6415ZM52.762 79.1082V78.6415L53.417 78.4205H56.5772V79.1082H52.762ZM59.623 79.1901C59.1972 79.1901 58.807 79.07 58.4522 78.8299C58.1029 78.5897 57.8245 78.2513 57.6171 77.8146C57.4097 77.3725 57.306 76.854 57.306 76.2591C57.306 75.6642 57.407 75.1484 57.6089 74.7117C57.8163 74.2751 58.0947 73.9394 58.444 73.7047C58.7933 73.4646 59.1781 73.3445 59.5984 73.3445C60.0296 73.3445 60.4199 73.4646 60.7692 73.7047C61.1185 73.9394 61.3941 74.2751 61.5961 74.7117C61.8035 75.1484 61.9072 75.6669 61.9072 76.2673C61.9072 76.8622 61.8035 77.3807 61.5961 77.8228C61.3941 78.2595 61.1185 78.5979 60.7692 78.838C60.4253 79.0727 60.0432 79.1901 59.623 79.1901ZM59.6066 78.4614C59.9068 78.4614 60.1688 78.3796 60.3926 78.2158C60.6218 78.0466 60.8019 77.7983 60.9329 77.4708C61.0639 77.1433 61.1294 76.7394 61.1294 76.2591C61.1294 75.7788 61.0639 75.3776 60.9329 75.0556C60.8019 74.7281 60.6218 74.4825 60.3926 74.3187C60.1633 74.1495 59.8986 74.0649 59.5984 74.0649C59.3037 74.0649 59.0417 74.1495 58.8124 74.3187C58.5832 74.4825 58.4031 74.7281 58.2721 75.0556C58.1466 75.3776 58.0838 75.7788 58.0838 76.2591C58.0838 76.7394 58.1466 77.1433 58.2721 77.4708C58.4031 77.7983 58.5832 78.0466 58.8124 78.2158C59.0417 78.3796 59.3064 78.4614 59.6066 78.4614ZM62.5482 78.6415L64.6441 76.431C64.857 76.2127 65.0235 76.0244 65.1435 75.8661C65.2636 75.7024 65.3482 75.5523 65.3973 75.4158C65.4519 75.2794 65.4792 75.1375 65.4792 74.9901C65.4792 74.7008 65.3864 74.4743 65.2008 74.3106C65.0153 74.1468 64.7751 74.0649 64.4804 74.0649C64.1911 74.0649 63.9373 74.1359 63.719 74.2778C63.5006 74.4143 63.3069 74.6271 63.1377 74.9164L62.5973 74.4661C62.8211 74.095 63.0913 73.8166 63.4079 73.631C63.7244 73.44 64.0901 73.3445 64.5049 73.3445C64.8543 73.3445 65.1572 73.4127 65.4137 73.5492C65.6757 73.6856 65.8776 73.8766 66.0196 74.1223C66.1615 74.3679 66.2324 74.6544 66.2324 74.9819C66.2324 75.2166 66.2024 75.4267 66.1424 75.6123C66.0878 75.7979 65.9868 75.9889 65.8394 76.1854C65.6975 76.3764 65.4983 76.6057 65.2418 76.8731L63.547 78.617L62.5482 78.6415ZM62.5482 79.1082V78.6415L63.2032 78.4205H66.3634V79.1082H62.5482ZM68.7296 79.1901C68.3585 79.1901 68.0201 79.1219 67.7144 78.9854C67.4142 78.8435 67.1604 78.6388 66.953 78.3714L67.477 77.8474C67.6025 78.0384 67.7745 78.1913 67.9928 78.3059C68.2111 78.415 68.454 78.4696 68.7214 78.4696C68.9725 78.4696 69.1881 78.4232 69.3682 78.3304C69.5538 78.2322 69.6984 78.0957 69.8021 77.9211C69.9113 77.7464 69.9659 77.5445 69.9659 77.3152C69.9659 77.0805 69.9113 76.8786 69.8021 76.7094C69.6984 76.5347 69.5511 76.401 69.36 76.3082C69.169 76.2154 68.9425 76.169 68.6805 76.169C68.5823 76.169 68.484 76.1772 68.3858 76.1936C68.2875 76.2045 68.192 76.2236 68.0992 76.2509L68.4267 75.8088C68.5304 75.7597 68.6423 75.7215 68.7624 75.6942C68.8825 75.6669 69.0025 75.6532 69.1226 75.6532C69.4283 75.6532 69.7012 75.7242 69.9413 75.8661C70.1869 76.008 70.3807 76.2072 70.5226 76.4638C70.67 76.7203 70.7437 77.0178 70.7437 77.3562C70.7437 77.7164 70.6563 78.0357 70.4817 78.3141C70.3125 78.587 70.0778 78.8026 69.7776 78.9608C69.4774 79.1137 69.1281 79.1901 68.7296 79.1901ZM68.0992 76.2509V75.7842L69.7612 73.893L70.6782 73.8848L68.9671 75.8252L68.0992 76.2509ZM67.2232 74.1141V73.4263H70.6782V73.8848L70.0068 74.1141H67.2232Z" fill="#989898"/>
<defs>
<filter id="filter0_d_156_4624" x="0.906433" y="0.377197" width="358.187" height="98.2456" filterUnits="userSpaceOnUse" color-interpolation-filters="sRGB">
<feFlood flood-opacity="0" result="BackgroundImageFix"/>
<feColorMatrix in="SourceAlpha" type="matrix" values="0 0 0 0 0 0 0 0 0 0 0 0 0 0 0 0 0 0 127 0" result="hardAlpha"/>
<feOffset/>
<feGaussianBlur stdDeviation="2.04678"/>
<feComposite in2="hardAlpha" operator="out"/>
<feColorMatrix type="matrix" values="0 0 0 0 0 0 0 0 0 0 0 0 0 0 0 0 0 0 0.1 0"/>
<feBlend mode="normal" in2="BackgroundImageFix" result="effect1_dropShadow_156_4624"/>
<feBlend mode="normal" in="SourceGraphic" in2="effect1_dropShadow_156_4624" result="shape"/>
</filter>
<clipPath id="clip0_156_4624">
<rect width="8.18713" height="8.18713" fill="white" transform="translate(309.456 71.8977)"/>
</clipPath>
<clipPath id="clip1_156_4624">
<rect width="8.18713" height="8.18713" fill="white" transform="translate(17.2812 72.0146)"/>
</clipPath>
</defs>
</svg>
