<svg width="198" height="229" viewBox="0 0 198 229" fill="none" xmlns="http://www.w3.org/2000/svg">
<g id="qr-code-binnovant 1" clip-path="url(#clip0_156_2040)">
<g id="Group">
<g id="Group_2">
<g id="Group_3">
<path id="Vector" d="M79.2042 19.7414C79.2042 20.6616 79.2042 23.6896 79.2042 23.6896C79.2042 23.6896 76.5163 23.6896 75.2559 23.6895C74.2716 23.6896 71.3076 23.6895 71.3076 23.6895C71.3076 23.6895 71.3076 20.9376 71.3076 19.7413C71.3077 17.5608 73.0753 15.7931 75.2558 15.7931C77.4364 15.7931 79.2042 17.5608 79.2042 19.7414Z" fill="black"/>
</g>
</g>
<g id="Group_4">
<g id="Group_5">
<path id="Vector_2" d="M94.9971 19.7414C94.9971 20.6616 94.9971 23.6896 94.9971 23.6896C94.9971 23.6896 92.3092 23.6896 91.0489 23.6895C90.0646 23.6896 87.1006 23.6895 87.1006 23.6895C87.1006 23.6895 87.1006 20.9376 87.1006 19.7413C87.1007 17.5608 88.8683 15.7931 91.0488 15.7931C93.2293 15.7931 94.9971 17.5608 94.9971 19.7414Z" fill="black"/>
</g>
</g>
<g id="Group_6">
<g id="Group_7">
<path id="Vector_3" d="M118.687 19.7414C118.687 20.6616 118.687 23.6896 118.687 23.6896C118.687 23.6896 115.999 23.6896 114.739 23.6895C113.755 23.6896 110.791 23.6895 110.791 23.6895C110.791 23.6895 110.791 20.9376 110.791 19.7413C110.791 17.5608 112.558 15.7931 114.739 15.7931C116.919 15.7931 118.687 17.5608 118.687 19.7414Z" fill="black"/>
</g>
</g>
<g id="Group_8">
<g id="Group_9">
<path id="Vector_4" d="M134.48 19.7414C134.48 20.6616 134.48 23.6896 134.48 23.6896C134.48 23.6896 131.792 23.6896 130.532 23.6895C129.547 23.6896 126.583 23.6895 126.583 23.6895C126.583 23.6895 126.583 20.9376 126.583 19.7413C126.584 17.5608 128.351 15.7931 130.532 15.7931C132.712 15.7931 134.48 17.5608 134.48 19.7414Z" fill="black"/>
</g>
</g>
<g id="Group_10">
<g id="Group_11">
<path id="Vector_5" d="M71.3076 27.6379C71.3076 26.7176 71.3076 23.6896 71.3076 23.6896C71.3076 23.6896 73.9956 23.6896 75.2559 23.6896C76.2402 23.6896 79.2042 23.6896 79.2042 23.6896C79.2042 23.6896 79.2042 26.4418 79.2042 27.6379C79.2042 29.8184 77.4364 31.5862 75.2559 31.5862C73.0753 31.5862 71.3076 29.8184 71.3076 27.6379Z" fill="black"/>
</g>
</g>
<g id="Group_12">
<g id="Group_13">
<g id="Group_14">
<path id="Vector_6" d="M94.9971 31.5862V23.6896H87.1006C87.1006 28.0508 90.6359 31.5862 94.9971 31.5862Z" fill="black"/>
</g>
</g>
</g>
<g id="Group_15">
<g id="Group_16">
<path id="Vector_7" d="M102.894 23.6896H94.9976V31.5862H102.894V23.6896Z" fill="black"/>
</g>
</g>
<g id="Group_17">
<g id="Group_18">
<path id="Vector_8" d="M110.791 23.6896H102.894V31.5862H110.791V23.6896Z" fill="black"/>
</g>
</g>
<g id="Group_19">
<g id="Group_20">
<path id="Vector_9" d="M118.687 23.6896H110.791V31.5862H118.687V23.6896Z" fill="black"/>
</g>
</g>
<g id="Group_21">
<g id="Group_22">
<path id="Vector_10" d="M126.584 23.6896H118.687V31.5862H126.584V23.6896Z" fill="black"/>
</g>
</g>
<g id="Group_23">
<g id="Group_24">
<path id="Vector_11" d="M134.48 23.6896H126.583V31.5862H134.48V23.6896Z" fill="black"/>
</g>
</g>
<g id="Group_25">
<g id="Group_26">
<path id="Vector_12" d="M71.3077 35.5345C71.3077 36.4547 71.3077 39.4827 71.3077 39.4827C71.3077 39.4827 68.6198 39.4827 67.3594 39.4825C66.3751 39.4827 63.4111 39.4825 63.4111 39.4825C63.4111 39.4825 63.4111 36.7307 63.4111 35.5344C63.4112 33.3539 65.1788 31.5862 67.3593 31.5862C69.5399 31.5862 71.3077 33.3539 71.3077 35.5345Z" fill="black"/>
</g>
</g>
<g id="Group_27">
<g id="Group_28">
<path id="Vector_13" d="M94.9976 35.5345C94.9976 34.6142 94.9976 31.5862 94.9976 31.5862C94.9976 31.5862 97.6856 31.5862 98.9458 31.5862C99.9301 31.5862 102.894 31.5862 102.894 31.5862C102.894 31.5862 102.894 34.3383 102.894 35.5345C102.894 37.7149 101.126 39.4827 98.9458 39.4827C96.7653 39.4827 94.9976 37.7149 94.9976 35.5345Z" fill="black"/>
</g>
</g>
<g id="Group_29">
<g id="Group_30">
<path id="Vector_14" d="M126.583 35.5345C126.583 34.6142 126.583 31.5862 126.583 31.5862C126.583 31.5862 129.271 31.5862 130.532 31.5862C131.516 31.5862 134.48 31.5862 134.48 31.5862C134.48 31.5862 134.48 34.3383 134.48 35.5345C134.48 37.7149 132.712 39.4827 130.532 39.4827C128.351 39.4827 126.583 37.7149 126.583 35.5345Z" fill="black"/>
</g>
</g>
<g id="Group_31">
<g id="Group_32">
<path id="Vector_15" d="M71.3077 39.4827H63.4111V47.3793H71.3077V39.4827Z" fill="black"/>
</g>
</g>
<g id="Group_33">
<g id="Group_34">
<path id="Vector_16" d="M79.2042 39.4827H71.3076V47.3793H79.2042V39.4827Z" fill="black"/>
</g>
</g>
<g id="Group_35">
<g id="Group_36">
<path id="Vector_17" d="M83.1524 47.3793C82.2321 47.3793 79.2041 47.3793 79.2041 47.3793C79.2041 47.3793 79.2041 44.6912 79.2041 43.431C79.2041 42.4467 79.2041 39.4827 79.2041 39.4827C79.2041 39.4827 81.9562 39.4827 83.1524 39.4827C85.3328 39.4827 87.1007 41.2504 87.1007 43.431C87.1007 45.6115 85.3328 47.3793 83.1524 47.3793Z" fill="black"/>
</g>
</g>
<g id="Group_37">
<g id="Group_38">
<path id="Vector_18" d="M106.842 39.4827C107.763 39.4827 110.791 39.4827 110.791 39.4827C110.791 39.4827 110.791 42.1704 110.791 43.431C110.791 44.415 110.791 47.3793 110.791 47.3793C110.791 47.3793 108.039 47.3793 106.842 47.3793C104.661 47.3793 102.894 45.6108 102.894 43.431C102.894 41.251 104.661 39.4827 106.842 39.4827Z" fill="black"/>
</g>
</g>
<g id="Group_39">
<g id="Group_40">
<path id="Vector_19" d="M114.739 47.3793C113.819 47.3793 110.791 47.3793 110.791 47.3793C110.791 47.3793 110.791 44.6912 110.791 43.431C110.791 42.4467 110.791 39.4827 110.791 39.4827C110.791 39.4827 113.543 39.4827 114.739 39.4827C116.919 39.4827 118.687 41.2504 118.687 43.431C118.687 45.6115 116.919 47.3793 114.739 47.3793Z" fill="black"/>
</g>
</g>
<g id="Group_41">
<g id="Group_42">
<path id="Vector_20" d="M71.3077 47.3793H63.4111V55.2758H71.3077V47.3793Z" fill="black"/>
</g>
</g>
<g id="Group_43">
<g id="Group_44">
<path id="Vector_21" d="M94.9971 51.3275C94.9971 52.2477 94.9971 55.2758 94.9971 55.2758C94.9971 55.2758 92.3092 55.2758 91.0489 55.2756C90.0646 55.2758 87.1006 55.2756 87.1006 55.2756C87.1006 55.2756 87.1006 52.5238 87.1006 51.3275C87.1007 49.147 88.8683 47.3793 91.0488 47.3793C93.2293 47.3793 94.9971 49.147 94.9971 51.3275Z" fill="black"/>
</g>
</g>
<g id="Group_45">
<g id="Group_46">
<path id="Vector_22" d="M130.532 47.3793C132.712 47.3793 134.48 49.147 134.48 51.3275C134.48 53.5082 132.712 55.2758 130.532 55.2758C128.351 55.2758 126.583 53.5082 126.583 51.3275C126.583 49.147 128.351 47.3793 130.532 47.3793Z" fill="black"/>
</g>
</g>
<g id="Group_47">
<g id="Group_48">
<path id="Vector_23" d="M71.3077 55.2759H63.4111V63.1724H71.3077V55.2759Z" fill="black"/>
</g>
</g>
<g id="Group_49">
<g id="Group_50">
<path id="Vector_24" d="M79.2042 55.2759H71.3076V63.1724H79.2042V55.2759Z" fill="black"/>
</g>
</g>
<g id="Group_51">
<g id="Group_52">
<path id="Vector_25" d="M87.1007 55.2759H79.2041V63.1724H87.1007V55.2759Z" fill="black"/>
</g>
</g>
<g id="Group_53">
<g id="Group_54">
<path id="Vector_26" d="M94.9971 55.2759H87.1006V63.1724H94.9971V55.2759Z" fill="black"/>
</g>
</g>
<g id="Group_55">
<g id="Group_56">
<g id="Group_57">
<path id="Vector_27" d="M94.9976 55.2759V63.1724H102.894C102.894 58.8112 99.3587 55.2759 94.9976 55.2759Z" fill="black"/>
</g>
</g>
</g>
<g id="Group_58">
<g id="Group_59">
<path id="Vector_28" d="M122.635 55.2759C124.816 55.2759 126.584 57.0436 126.584 59.2242C126.584 61.4048 124.816 63.1724 122.635 63.1724C120.455 63.1724 118.687 61.4048 118.687 59.2242C118.687 57.0436 120.455 55.2759 122.635 55.2759Z" fill="black"/>
</g>
</g>
<g id="Group_60">
<g id="Group_61">
<path id="Vector_29" d="M71.3077 63.1724H63.4111V71.069H71.3077V63.1724Z" fill="black"/>
</g>
</g>
<g id="Group_62">
<g id="Group_63">
<path id="Vector_30" d="M79.2041 67.1207C79.2041 66.2004 79.2041 63.1724 79.2041 63.1724C79.2041 63.1724 81.8921 63.1724 83.1524 63.1724C84.1367 63.1724 87.1007 63.1724 87.1007 63.1724C87.1007 63.1724 87.1007 65.9245 87.1007 67.1207C87.1007 69.3012 85.3328 71.069 83.1524 71.069C80.9718 71.069 79.2041 69.3012 79.2041 67.1207Z" fill="black"/>
</g>
</g>
<g id="Group_64">
<g id="Group_65">
<path id="Vector_31" d="M94.9976 67.1207C94.9976 66.2004 94.9976 63.1724 94.9976 63.1724C94.9976 63.1724 97.6856 63.1724 98.9458 63.1724C99.9301 63.1724 102.894 63.1724 102.894 63.1724C102.894 63.1724 102.894 65.9245 102.894 67.1207C102.894 69.3012 101.126 71.069 98.9458 71.069C96.7653 71.069 94.9976 69.3012 94.9976 67.1207Z" fill="black"/>
</g>
</g>
<g id="Group_66">
<g id="Group_67">
<path id="Vector_32" d="M118.687 67.1207C118.687 68.0409 118.687 71.069 118.687 71.069C118.687 71.069 115.999 71.069 114.739 71.0688C113.755 71.069 110.791 71.0688 110.791 71.0688C110.791 71.0688 110.791 68.317 110.791 67.1206C110.791 64.9402 112.558 63.1724 114.739 63.1724C116.919 63.1724 118.687 64.9401 118.687 67.1207Z" fill="black"/>
</g>
</g>
<g id="Group_68">
<g id="Group_69">
<path id="Vector_33" d="M134.48 67.1207C134.48 68.0409 134.48 71.069 134.48 71.069C134.48 71.069 131.792 71.069 130.532 71.0688C129.547 71.069 126.583 71.0688 126.583 71.0688C126.583 71.0688 126.583 68.317 126.583 67.1206C126.584 64.9402 128.351 63.1724 130.532 63.1724C132.712 63.1724 134.48 64.9401 134.48 67.1207Z" fill="black"/>
</g>
</g>
<g id="Group_70">
<g id="Group_71">
<path id="Vector_34" d="M63.4111 75.0172C63.4111 74.097 63.4111 71.069 63.4111 71.069C63.4111 71.069 66.0991 71.069 67.3594 71.069C68.3437 71.069 71.3077 71.069 71.3077 71.069C71.3077 71.069 71.3077 73.8211 71.3077 75.0172C71.3077 77.1977 69.5399 78.9655 67.3594 78.9655C65.1788 78.9655 63.4111 77.1977 63.4111 75.0172Z" fill="black"/>
</g>
</g>
<g id="Group_72">
<g id="Group_73">
<path id="Vector_35" d="M118.687 71.069H110.791V78.9655H118.687V71.069Z" fill="black"/>
</g>
</g>
<g id="Group_74">
<g id="Group_75">
<path id="Vector_36" d="M126.583 75.0172C126.583 74.097 126.583 71.069 126.583 71.069C126.583 71.069 129.271 71.069 130.532 71.069C131.516 71.069 134.48 71.069 134.48 71.069C134.48 71.069 134.48 73.8211 134.48 75.0172C134.48 77.1977 132.712 78.9655 130.532 78.9655C128.351 78.9655 126.583 77.1977 126.583 75.0172Z" fill="black"/>
</g>
</g>
<g id="Group_76">
<g id="Group_77">
<path id="Vector_37" d="M4.18705 78.9655C6.36771 78.9655 8.13532 80.7332 8.13532 82.9138C8.13532 85.0945 6.36771 86.8621 4.18705 86.8621C2.00649 86.8621 0.23877 85.0945 0.23877 82.9138C0.23877 80.7332 2.00649 78.9655 4.18705 78.9655Z" fill="black"/>
</g>
</g>
<g id="Group_78">
<g id="Group_79">
<g id="Group_80">
<path id="Vector_38" d="M16.0317 86.8621H23.9283V78.9655C19.5672 78.9655 16.0317 82.5009 16.0317 86.8621Z" fill="black"/>
</g>
</g>
</g>
<g id="Group_81">
<g id="Group_82">
<path id="Vector_39" d="M31.8253 78.9655H23.9287V86.8621H31.8253V78.9655Z" fill="black"/>
</g>
</g>
<g id="Group_83">
<g id="Group_84">
<path id="Vector_40" d="M39.7217 78.9655H31.8252V86.8621H39.7217V78.9655Z" fill="black"/>
</g>
</g>
<g id="Group_85">
<g id="Group_86">
<path id="Vector_41" d="M47.6182 78.9655H39.7217V86.8621H47.6182V78.9655Z" fill="black"/>
</g>
</g>
<g id="Group_87">
<g id="Group_88">
<path id="Vector_42" d="M51.5664 86.8621C50.6462 86.8621 47.6182 86.8621 47.6182 86.8621C47.6182 86.8621 47.6182 84.174 47.6182 82.9138C47.6182 81.9295 47.6182 78.9655 47.6182 78.9655C47.6182 78.9655 50.3703 78.9655 51.5664 78.9655C53.7469 78.9655 55.5147 80.7332 55.5147 82.9138C55.5147 85.0943 53.7469 86.8621 51.5664 86.8621Z" fill="black"/>
</g>
</g>
<g id="Group_89">
<g id="Group_90">
<path id="Vector_43" d="M75.2559 78.9655C77.4366 78.9655 79.2042 80.7332 79.2042 82.9138C79.2042 85.0945 77.4366 86.8621 75.2559 86.8621C73.0753 86.8621 71.3076 85.0945 71.3076 82.9138C71.3076 80.7332 73.0753 78.9655 75.2559 78.9655Z" fill="black"/>
</g>
</g>
<g id="Group_91">
<g id="Group_92">
<g id="Group_93">
<path id="Vector_44" d="M94.9976 86.8621H102.894V78.9655C98.533 78.9655 94.9976 82.5009 94.9976 86.8621Z" fill="black"/>
</g>
</g>
</g>
<g id="Group_94">
<g id="Group_95">
<path id="Vector_45" d="M110.791 78.9655H102.894V86.8621H110.791V78.9655Z" fill="black"/>
</g>
</g>
<g id="Group_96">
<g id="Group_97">
<g id="Group_98">
<path id="Vector_46" d="M118.687 78.9655H110.791V86.8621C115.152 86.8621 118.687 83.3267 118.687 78.9655Z" fill="black"/>
</g>
</g>
</g>
<g id="Group_99">
<g id="Group_100">
<path id="Vector_47" d="M146.325 78.9655C147.245 78.9655 150.274 78.9655 150.274 78.9655C150.274 78.9655 150.274 81.6532 150.274 82.9138C150.274 83.8978 150.274 86.8621 150.274 86.8621C150.274 86.8621 147.522 86.8621 146.325 86.8621C144.144 86.8621 142.377 85.0936 142.377 82.9138C142.377 80.7338 144.144 78.9655 146.325 78.9655Z" fill="black"/>
</g>
</g>
<g id="Group_101">
<g id="Group_102">
<path id="Vector_48" d="M158.17 78.9655H150.273V86.8621H158.17V78.9655Z" fill="black"/>
</g>
</g>
<g id="Group_103">
<g id="Group_104">
<path id="Vector_49" d="M166.066 78.9655H158.17V86.8621H166.066V78.9655Z" fill="black"/>
</g>
</g>
<g id="Group_105">
<g id="Group_106">
<path id="Vector_50" d="M173.963 78.9655H166.066V86.8621H173.963V78.9655Z" fill="black"/>
</g>
</g>
<g id="Group_107">
<g id="Group_108">
<path id="Vector_51" d="M177.911 86.8621C176.991 86.8621 173.963 86.8621 173.963 86.8621C173.963 86.8621 173.963 84.174 173.963 82.9138C173.963 81.9295 173.963 78.9655 173.963 78.9655C173.963 78.9655 176.715 78.9655 177.911 78.9655C180.092 78.9655 181.859 80.7332 181.859 82.9138C181.859 85.0943 180.092 86.8621 177.911 86.8621Z" fill="black"/>
</g>
</g>
<g id="Group_109">
<g id="Group_110">
<path id="Vector_52" d="M16.0317 90.8103C16.0317 89.8901 16.0317 86.8621 16.0317 86.8621C16.0317 86.8621 18.7197 86.8621 19.98 86.8621C20.9643 86.8621 23.9283 86.8621 23.9283 86.8621C23.9283 86.8621 23.9283 89.6142 23.9283 90.8103C23.9283 92.9908 22.1605 94.7586 19.98 94.7586C17.7994 94.7586 16.0317 92.9908 16.0317 90.8103Z" fill="black"/>
</g>
</g>
<g id="Group_111">
<g id="Group_112">
<g id="Group_113">
<path id="Vector_53" d="M39.7217 94.7586V86.8621H31.8252C31.8252 91.2232 35.3605 94.7586 39.7217 94.7586Z" fill="black"/>
</g>
</g>
</g>
<g id="Group_114">
<g id="Group_115">
<g id="Group_116">
<path id="Vector_54" d="M47.6182 86.8621H39.7217V94.7586C44.0828 94.7586 47.6182 91.2232 47.6182 86.8621Z" fill="black"/>
</g>
</g>
</g>
<g id="Group_117">
<g id="Group_118">
<path id="Vector_55" d="M63.4112 90.8103C63.4112 91.7305 63.4112 94.7586 63.4112 94.7586C63.4112 94.7586 60.7233 94.7586 59.4629 94.7584C58.4786 94.7586 55.5146 94.7584 55.5146 94.7584C55.5146 94.7584 55.5146 92.0066 55.5146 90.8102C55.5147 88.6298 57.2824 86.8621 59.4628 86.8621C61.6434 86.8621 63.4112 88.6298 63.4112 90.8103Z" fill="black"/>
</g>
</g>
<g id="Group_119">
<g id="Group_120">
<path id="Vector_56" d="M87.1007 90.8103C87.1007 91.7305 87.1007 94.7586 87.1007 94.7586C87.1007 94.7586 84.4128 94.7586 83.1524 94.7584C82.1681 94.7586 79.2041 94.7584 79.2041 94.7584C79.2041 94.7584 79.2041 92.0066 79.2041 90.8102C79.2042 88.6298 80.9718 86.8621 83.1523 86.8621C85.3328 86.8621 87.1007 88.6298 87.1007 90.8103Z" fill="black"/>
</g>
</g>
<g id="Group_121">
<g id="Group_122">
<g id="Group_123">
<path id="Vector_57" d="M102.894 94.7586V86.8621H94.9976C94.9976 91.2232 98.5329 94.7586 102.894 94.7586Z" fill="black"/>
</g>
</g>
</g>
<g id="Group_124">
<g id="Group_125">
<path id="Vector_58" d="M110.791 86.8621H102.894V94.7586H110.791V86.8621Z" fill="black"/>
</g>
</g>
<g id="Group_126">
<g id="Group_127">
<path id="Vector_59" d="M130.532 86.8621C131.452 86.8621 134.48 86.8621 134.48 86.8621C134.48 86.8621 134.48 89.5498 134.48 90.8103C134.48 91.7943 134.48 94.7586 134.48 94.7586C134.48 94.7586 131.729 94.7586 130.532 94.7586C128.35 94.7586 126.583 92.9901 126.583 90.8103C126.583 88.6303 128.35 86.8621 130.532 86.8621Z" fill="black"/>
</g>
</g>
<g id="Group_128">
<g id="Group_129">
<g id="Group_130">
<path id="Vector_60" d="M134.48 86.8621V94.7586H142.377C142.377 90.3974 138.841 86.8621 134.48 86.8621Z" fill="black"/>
</g>
</g>
</g>
<g id="Group_131">
<g id="Group_132">
<path id="Vector_61" d="M158.17 86.8621H150.273V94.7586H158.17V86.8621Z" fill="black"/>
</g>
</g>
<g id="Group_133">
<g id="Group_134">
<path id="Vector_62" d="M189.756 90.8103C189.756 91.7305 189.756 94.7586 189.756 94.7586C189.756 94.7586 187.068 94.7586 185.808 94.7584C184.823 94.7586 181.859 94.7584 181.859 94.7584C181.859 94.7584 181.859 92.0066 181.859 90.8102C181.859 88.6298 183.627 86.8621 185.808 86.8621C187.988 86.8621 189.756 88.6298 189.756 90.8103Z" fill="black"/>
</g>
</g>
<g id="Group_135">
<g id="Group_136">
<path id="Vector_63" d="M4.18705 94.7586C5.10731 94.7586 8.13532 94.7586 8.13532 94.7586C8.13532 94.7586 8.13532 97.4463 8.13532 98.7069C8.13532 99.6909 8.13532 102.655 8.13532 102.655C8.13532 102.655 5.38386 102.655 4.18705 102.655C2.00572 102.655 0.23877 100.887 0.23877 98.7069C0.23877 96.5268 2.00572 94.7586 4.18705 94.7586Z" fill="black"/>
</g>
</g>
<g id="Group_137">
<g id="Group_138">
<path id="Vector_64" d="M12.0835 102.655C11.1632 102.655 8.13525 102.655 8.13525 102.655C8.13525 102.655 8.13525 99.9671 8.13525 98.7069C8.13525 97.7226 8.13525 94.7586 8.13525 94.7586C8.13525 94.7586 10.8874 94.7586 12.0835 94.7586C14.264 94.7586 16.0318 96.5263 16.0318 98.7069C16.0318 100.887 14.264 102.655 12.0835 102.655Z" fill="black"/>
</g>
</g>
<g id="Group_139">
<g id="Group_140">
<path id="Vector_65" d="M51.5664 94.7586C52.4867 94.7586 55.5147 94.7586 55.5147 94.7586C55.5147 94.7586 55.5147 97.4463 55.5147 98.7069C55.5147 99.6909 55.5147 102.655 55.5147 102.655C55.5147 102.655 52.7633 102.655 51.5664 102.655C49.3851 102.655 47.6182 100.887 47.6182 98.7069C47.6182 96.5268 49.3851 94.7586 51.5664 94.7586Z" fill="black"/>
</g>
</g>
<g id="Group_141">
<g id="Group_142">
<path id="Vector_66" d="M63.4112 94.7586H55.5146V102.655H63.4112V94.7586Z" fill="black"/>
</g>
</g>
<g id="Group_143">
<g id="Group_144">
<g id="Group_145">
<path id="Vector_67" d="M71.3076 102.655H79.2042V94.7586C74.8431 94.7586 71.3076 98.294 71.3076 102.655Z" fill="black"/>
</g>
</g>
</g>
<g id="Group_146">
<g id="Group_147">
<path id="Vector_68" d="M87.1007 94.7586H79.2041V102.655H87.1007V94.7586Z" fill="black"/>
</g>
</g>
<g id="Group_148">
<g id="Group_149">
<g id="Group_150">
<path id="Vector_69" d="M110.791 102.655V94.7586H102.894C102.894 99.1197 106.429 102.655 110.791 102.655Z" fill="black"/>
</g>
</g>
</g>
<g id="Group_151">
<g id="Group_152">
<path id="Vector_70" d="M118.687 94.7586H110.791V102.655H118.687V94.7586Z" fill="black"/>
</g>
</g>
<g id="Group_153">
<g id="Group_154">
<path id="Vector_71" d="M122.635 102.655C121.715 102.655 118.687 102.655 118.687 102.655C118.687 102.655 118.687 99.9671 118.687 98.7069C118.687 97.7226 118.687 94.7586 118.687 94.7586C118.687 94.7586 121.439 94.7586 122.635 94.7586C124.816 94.7586 126.584 96.5263 126.584 98.7069C126.584 100.887 124.816 102.655 122.635 102.655Z" fill="black"/>
</g>
</g>
<g id="Group_155">
<g id="Group_156">
<path id="Vector_72" d="M142.377 94.7586H134.48V102.655H142.377V94.7586Z" fill="black"/>
</g>
</g>
<g id="Group_157">
<g id="Group_158">
<path id="Vector_73" d="M150.274 94.7586H142.377V102.655H150.274V94.7586Z" fill="black"/>
</g>
</g>
<g id="Group_159">
<g id="Group_160">
<path id="Vector_74" d="M158.17 94.7586H150.273V102.655H158.17V94.7586Z" fill="black"/>
</g>
</g>
<g id="Group_161">
<g id="Group_162">
<path id="Vector_75" d="M166.066 94.7586H158.17V102.655H166.066V94.7586Z" fill="black"/>
</g>
</g>
<g id="Group_163">
<g id="Group_164">
<path id="Vector_76" d="M170.015 102.655C169.094 102.655 166.066 102.655 166.066 102.655C166.066 102.655 166.066 99.9671 166.066 98.7069C166.066 97.7226 166.066 94.7586 166.066 94.7586C166.066 94.7586 168.819 94.7586 170.015 94.7586C172.195 94.7586 173.963 96.5263 173.963 98.7069C173.963 100.887 172.195 102.655 170.015 102.655Z" fill="black"/>
</g>
</g>
<g id="Group_165">
<g id="Group_166">
<g id="Group_167">
<path id="Vector_77" d="M189.756 102.655V94.7586H181.859C181.859 99.1197 185.395 102.655 189.756 102.655Z" fill="black"/>
</g>
</g>
</g>
<g id="Group_168">
<g id="Group_169">
<g id="Group_170">
<path id="Vector_78" d="M189.756 94.7586V102.655H197.652C197.652 98.2939 194.117 94.7586 189.756 94.7586Z" fill="black"/>
</g>
</g>
</g>
<g id="Group_171">
<g id="Group_172">
<g id="Group_173">
<path id="Vector_79" d="M16.0317 110.552H23.9283V102.655C19.5672 102.655 16.0317 106.191 16.0317 110.552Z" fill="black"/>
</g>
</g>
</g>
<g id="Group_174">
<g id="Group_175">
<g id="Group_176">
<path id="Vector_80" d="M23.9287 102.655V110.552H31.8253C31.8253 106.19 28.2899 102.655 23.9287 102.655Z" fill="black"/>
</g>
</g>
</g>
<g id="Group_177">
<g id="Group_178">
<path id="Vector_81" d="M47.6182 106.603C47.6182 107.524 47.6182 110.552 47.6182 110.552C47.6182 110.552 44.9303 110.552 43.67 110.552C42.6857 110.552 39.7217 110.552 39.7217 110.552C39.7217 110.552 39.7217 107.8 39.7217 106.603C39.7218 104.423 41.4894 102.655 43.6699 102.655C45.8504 102.655 47.6182 104.423 47.6182 106.603Z" fill="black"/>
</g>
</g>
<g id="Group_179">
<g id="Group_180">
<path id="Vector_82" d="M63.4112 102.655H55.5146V110.552H63.4112V102.655Z" fill="black"/>
</g>
</g>
<g id="Group_181">
<g id="Group_182">
<path id="Vector_83" d="M71.3077 102.655H63.4111V110.552H71.3077V102.655Z" fill="black"/>
</g>
</g>
<g id="Group_183">
<g id="Group_184">
<path id="Vector_84" d="M79.2042 102.655H71.3076V110.552H79.2042V102.655Z" fill="black"/>
</g>
</g>
<g id="Group_185">
<g id="Group_186">
<path id="Vector_85" d="M87.1007 102.655H79.2041V110.552H87.1007V102.655Z" fill="black"/>
</g>
</g>
<g id="Group_187">
<g id="Group_188">
<path id="Vector_86" d="M91.0489 110.552C90.1286 110.552 87.1006 110.552 87.1006 110.552C87.1006 110.552 87.1006 107.864 87.1006 106.603C87.1006 105.619 87.1006 102.655 87.1006 102.655C87.1006 102.655 89.8527 102.655 91.0489 102.655C93.2293 102.655 94.9971 104.423 94.9971 106.603C94.9971 108.784 93.2293 110.552 91.0489 110.552Z" fill="black"/>
</g>
</g>
<g id="Group_189">
<g id="Group_190">
<path id="Vector_87" d="M130.532 102.655C131.452 102.655 134.48 102.655 134.48 102.655C134.48 102.655 134.48 105.343 134.48 106.603C134.48 107.587 134.48 110.552 134.48 110.552C134.48 110.552 131.729 110.552 130.532 110.552C128.35 110.552 126.583 108.783 126.583 106.603C126.583 104.423 128.35 102.655 130.532 102.655Z" fill="black"/>
</g>
</g>
<g id="Group_191">
<g id="Group_192">
<path id="Vector_88" d="M142.377 102.655H134.48V110.552H142.377V102.655Z" fill="black"/>
</g>
</g>
<g id="Group_193">
<g id="Group_194">
<path id="Vector_89" d="M158.17 102.655H150.273V110.552H158.17V102.655Z" fill="black"/>
</g>
</g>
<g id="Group_195">
<g id="Group_196">
<path id="Vector_90" d="M197.652 102.655H189.756V110.552H197.652V102.655Z" fill="black"/>
</g>
</g>
<g id="Group_197">
<g id="Group_198">
<path id="Vector_91" d="M12.0835 110.552C13.0038 110.552 16.0318 110.552 16.0318 110.552C16.0318 110.552 16.0318 113.239 16.0318 114.5C16.0318 115.484 16.0318 118.448 16.0318 118.448C16.0318 118.448 13.2803 118.448 12.0835 118.448C9.9022 118.448 8.13525 116.68 8.13525 114.5C8.13525 112.32 9.9022 110.552 12.0835 110.552Z" fill="black"/>
</g>
</g>
<g id="Group_199">
<g id="Group_200">
<path id="Vector_92" d="M23.9283 110.552H16.0317V118.448H23.9283V110.552Z" fill="black"/>
</g>
</g>
<g id="Group_201">
<g id="Group_202">
<g id="Group_203">
<path id="Vector_93" d="M31.8253 110.552H23.9287V118.448C28.2899 118.448 31.8253 114.913 31.8253 110.552Z" fill="black"/>
</g>
</g>
</g>
<g id="Group_204">
<g id="Group_205">
<g id="Group_206">
<path id="Vector_94" d="M47.6182 118.448V110.552H39.7217C39.7217 114.913 43.257 118.448 47.6182 118.448Z" fill="black"/>
</g>
</g>
</g>
<g id="Group_207">
<g id="Group_208">
<path id="Vector_95" d="M55.5147 110.552H47.6182V118.448H55.5147V110.552Z" fill="black"/>
</g>
</g>
<g id="Group_209">
<g id="Group_210">
<path id="Vector_96" d="M63.4112 110.552H55.5146V118.448H63.4112V110.552Z" fill="black"/>
</g>
</g>
<g id="Group_211">
<g id="Group_212">
<g id="Group_213">
<path id="Vector_97" d="M71.3077 110.552H63.4111V118.448C67.7723 118.448 71.3077 114.913 71.3077 110.552Z" fill="black"/>
</g>
</g>
</g>
<g id="Group_214">
<g id="Group_215">
<g id="Group_216">
<path id="Vector_98" d="M94.9976 118.448H102.894V110.552C98.533 110.552 94.9976 114.087 94.9976 118.448Z" fill="black"/>
</g>
</g>
</g>
<g id="Group_217">
<g id="Group_218">
<path id="Vector_99" d="M110.791 110.552H102.894V118.448H110.791V110.552Z" fill="black"/>
</g>
</g>
<g id="Group_219">
<g id="Group_220">
<g id="Group_221">
<path id="Vector_100" d="M110.791 110.552V118.448H118.687C118.687 114.087 115.152 110.552 110.791 110.552Z" fill="black"/>
</g>
</g>
</g>
<g id="Group_222">
<g id="Group_223">
<path id="Vector_101" d="M142.377 110.552H134.48V118.448H142.377V110.552Z" fill="black"/>
</g>
</g>
<g id="Group_224">
<g id="Group_225">
<path id="Vector_102" d="M150.274 110.552H142.377V118.448H150.274V110.552Z" fill="black"/>
</g>
</g>
<g id="Group_226">
<g id="Group_227">
<path id="Vector_103" d="M158.17 110.552H150.273V118.448H158.17V110.552Z" fill="black"/>
</g>
</g>
<g id="Group_228">
<g id="Group_229">
<path id="Vector_104" d="M162.118 118.448C161.198 118.448 158.17 118.448 158.17 118.448C158.17 118.448 158.17 115.76 158.17 114.5C158.17 113.516 158.17 110.552 158.17 110.552C158.17 110.552 160.922 110.552 162.118 110.552C164.299 110.552 166.066 112.319 166.066 114.5C166.066 116.68 164.299 118.448 162.118 118.448Z" fill="black"/>
</g>
</g>
<g id="Group_230">
<g id="Group_231">
<path id="Vector_105" d="M177.911 110.552C178.831 110.552 181.859 110.552 181.859 110.552C181.859 110.552 181.859 113.239 181.859 114.5C181.859 115.484 181.859 118.448 181.859 118.448C181.859 118.448 179.108 118.448 177.911 118.448C175.73 118.448 173.963 116.68 173.963 114.5C173.963 112.32 175.73 110.552 177.911 110.552Z" fill="black"/>
</g>
</g>
<g id="Group_232">
<g id="Group_233">
<path id="Vector_106" d="M189.756 110.552H181.859V118.448H189.756V110.552Z" fill="black"/>
</g>
</g>
<g id="Group_234">
<g id="Group_235">
<g id="Group_236">
<path id="Vector_107" d="M197.652 110.552H189.756V118.448C194.117 118.448 197.652 114.913 197.652 110.552Z" fill="black"/>
</g>
</g>
</g>
<g id="Group_237">
<g id="Group_238">
<path id="Vector_108" d="M8.13532 122.397C8.13532 123.317 8.13532 126.345 8.13532 126.345C8.13532 126.345 5.44743 126.345 4.18705 126.345C3.20276 126.345 0.23877 126.345 0.23877 126.345C0.23877 126.345 0.23877 123.593 0.23877 122.396C0.238864 120.216 2.00648 118.448 4.18695 118.448C6.3675 118.448 8.13532 120.216 8.13532 122.397Z" fill="black"/>
</g>
</g>
<g id="Group_239">
<g id="Group_240">
<path id="Vector_109" d="M16.0317 122.397C16.0317 121.476 16.0317 118.448 16.0317 118.448C16.0317 118.448 18.7197 118.448 19.98 118.448C20.9643 118.448 23.9283 118.448 23.9283 118.448C23.9283 118.448 23.9283 121.2 23.9283 122.397C23.9283 124.577 22.1605 126.345 19.98 126.345C17.7994 126.345 16.0317 124.577 16.0317 122.397Z" fill="black"/>
</g>
</g>
<g id="Group_241">
<g id="Group_242">
<path id="Vector_110" d="M75.2559 118.448C77.4366 118.448 79.2042 120.216 79.2042 122.397C79.2042 124.577 77.4366 126.345 75.2559 126.345C73.0753 126.345 71.3076 124.577 71.3076 122.397C71.3076 120.216 73.0753 118.448 75.2559 118.448Z" fill="black"/>
</g>
</g>
<g id="Group_243">
<g id="Group_244">
<path id="Vector_111" d="M94.9976 122.397C94.9976 121.476 94.9976 118.448 94.9976 118.448C94.9976 118.448 97.6856 118.448 98.9458 118.448C99.9301 118.448 102.894 118.448 102.894 118.448C102.894 118.448 102.894 121.2 102.894 122.397C102.894 124.577 101.126 126.345 98.9458 126.345C96.7653 126.345 94.9976 124.577 94.9976 122.397Z" fill="black"/>
</g>
</g>
<g id="Group_245">
<g id="Group_246">
<path id="Vector_112" d="M118.687 118.448H110.791V126.345H118.687V118.448Z" fill="black"/>
</g>
</g>
<g id="Group_247">
<g id="Group_248">
<g id="Group_249">
<path id="Vector_113" d="M126.583 126.345H134.48V118.448C130.119 118.448 126.583 121.984 126.583 126.345Z" fill="black"/>
</g>
</g>
</g>
<g id="Group_250">
<g id="Group_251">
<path id="Vector_114" d="M142.377 118.448H134.48V126.345H142.377V118.448Z" fill="black"/>
</g>
</g>
<g id="Group_252">
<g id="Group_253">
<path id="Vector_115" d="M158.17 118.448H150.273V126.345H158.17V118.448Z" fill="black"/>
</g>
</g>
<g id="Group_254">
<g id="Group_255">
<path id="Vector_116" d="M173.963 122.397C173.963 123.317 173.963 126.345 173.963 126.345C173.963 126.345 171.275 126.345 170.015 126.345C169.03 126.345 166.066 126.345 166.066 126.345C166.066 126.345 166.066 123.593 166.066 122.396C166.067 120.216 167.834 118.448 170.015 118.448C172.195 118.448 173.963 120.216 173.963 122.397Z" fill="black"/>
</g>
</g>
<g id="Group_256">
<g id="Group_257">
<path id="Vector_117" d="M189.756 118.448H181.859V126.345H189.756V118.448Z" fill="black"/>
</g>
</g>
<g id="Group_258">
<g id="Group_259">
<path id="Vector_118" d="M8.13532 126.345H0.23877V134.241H8.13532V126.345Z" fill="black"/>
</g>
</g>
<g id="Group_260">
<g id="Group_261">
<path id="Vector_119" d="M27.877 126.345C28.7973 126.345 31.8253 126.345 31.8253 126.345C31.8253 126.345 31.8253 129.033 31.8253 130.293C31.8253 131.277 31.8253 134.241 31.8253 134.241C31.8253 134.241 29.0738 134.241 27.877 134.241C25.6957 134.241 23.9287 132.473 23.9287 130.293C23.9287 128.113 25.6957 126.345 27.877 126.345Z" fill="black"/>
</g>
</g>
<g id="Group_262">
<g id="Group_263">
<path id="Vector_120" d="M35.7735 134.241C34.8532 134.241 31.8252 134.241 31.8252 134.241C31.8252 134.241 31.8252 131.553 31.8252 130.293C31.8252 129.309 31.8252 126.345 31.8252 126.345C31.8252 126.345 34.5773 126.345 35.7735 126.345C37.9539 126.345 39.7217 128.113 39.7217 130.293C39.7217 132.474 37.9539 134.241 35.7735 134.241Z" fill="black"/>
</g>
</g>
<g id="Group_264">
<g id="Group_265">
<path id="Vector_121" d="M51.5664 126.345C52.4867 126.345 55.5147 126.345 55.5147 126.345C55.5147 126.345 55.5147 129.033 55.5147 130.293C55.5147 131.277 55.5147 134.241 55.5147 134.241C55.5147 134.241 52.7633 134.241 51.5664 134.241C49.3851 134.241 47.6182 132.473 47.6182 130.293C47.6182 128.113 49.3851 126.345 51.5664 126.345Z" fill="black"/>
</g>
</g>
<g id="Group_266">
<g id="Group_267">
<g id="Group_268">
<path id="Vector_122" d="M55.5146 126.345V134.241H63.4112C63.4112 129.88 59.8758 126.345 55.5146 126.345Z" fill="black"/>
</g>
</g>
</g>
<g id="Group_269">
<g id="Group_270">
<path id="Vector_123" d="M87.1007 130.293C87.1007 131.213 87.1007 134.241 87.1007 134.241C87.1007 134.241 84.4128 134.241 83.1524 134.241C82.1681 134.241 79.2041 134.241 79.2041 134.241C79.2041 134.241 79.2041 131.489 79.2041 130.293C79.2042 128.113 80.9718 126.345 83.1523 126.345C85.3328 126.345 87.1007 128.113 87.1007 130.293Z" fill="black"/>
</g>
</g>
<g id="Group_271">
<g id="Group_272">
<g id="Group_273">
<path id="Vector_124" d="M118.687 134.241V126.345H110.791C110.791 130.706 114.326 134.241 118.687 134.241Z" fill="black"/>
</g>
</g>
</g>
<g id="Group_274">
<g id="Group_275">
<path id="Vector_125" d="M126.584 126.345H118.687V134.241H126.584V126.345Z" fill="black"/>
</g>
</g>
<g id="Group_276">
<g id="Group_277">
<path id="Vector_126" d="M134.48 126.345H126.583V134.241H134.48V126.345Z" fill="black"/>
</g>
</g>
<g id="Group_278">
<g id="Group_279">
<path id="Vector_127" d="M142.377 126.345H134.48V134.241H142.377V126.345Z" fill="black"/>
</g>
</g>
<g id="Group_280">
<g id="Group_281">
<path id="Vector_128" d="M150.274 126.345H142.377V134.241H150.274V126.345Z" fill="black"/>
</g>
</g>
<g id="Group_282">
<g id="Group_283">
<path id="Vector_129" d="M158.17 126.345H150.273V134.241H158.17V126.345Z" fill="black"/>
</g>
</g>
<g id="Group_284">
<g id="Group_285">
<path id="Vector_130" d="M166.066 126.345H158.17V134.241H166.066V126.345Z" fill="black"/>
</g>
</g>
<g id="Group_286">
<g id="Group_287">
<g id="Group_288">
<path id="Vector_131" d="M173.963 126.345H166.066V134.241C170.428 134.241 173.963 130.706 173.963 126.345Z" fill="black"/>
</g>
</g>
</g>
<g id="Group_289">
<g id="Group_290">
<g id="Group_291">
<path id="Vector_132" d="M189.756 134.241V126.345H181.859C181.859 130.706 185.395 134.241 189.756 134.241Z" fill="black"/>
</g>
</g>
</g>
<g id="Group_292">
<g id="Group_293">
<g id="Group_294">
<path id="Vector_133" d="M189.756 126.345V134.241H197.652C197.652 129.88 194.117 126.345 189.756 126.345Z" fill="black"/>
</g>
</g>
</g>
<g id="Group_295">
<g id="Group_296">
<path id="Vector_134" d="M8.13532 134.241H0.23877V142.138H8.13532V134.241Z" fill="black"/>
</g>
</g>
<g id="Group_297">
<g id="Group_298">
<path id="Vector_135" d="M47.6182 138.19C47.6182 139.11 47.6182 142.138 47.6182 142.138C47.6182 142.138 44.9303 142.138 43.67 142.138C42.6857 142.138 39.7217 142.138 39.7217 142.138C39.7217 142.138 39.7217 139.386 39.7217 138.19C39.7218 136.009 41.4894 134.241 43.6699 134.241C45.8504 134.241 47.6182 136.009 47.6182 138.19Z" fill="black"/>
</g>
</g>
<g id="Group_299">
<g id="Group_300">
<path id="Vector_136" d="M63.4112 134.241H55.5146V142.138H63.4112V134.241Z" fill="black"/>
</g>
</g>
<g id="Group_301">
<g id="Group_302">
<g id="Group_303">
<path id="Vector_137" d="M71.3076 142.138H79.2042V134.241C74.8431 134.241 71.3076 137.777 71.3076 142.138Z" fill="black"/>
</g>
</g>
</g>
<g id="Group_304">
<g id="Group_305">
<path id="Vector_138" d="M87.1007 134.241H79.2041V142.138H87.1007V134.241Z" fill="black"/>
</g>
</g>
<g id="Group_306">
<g id="Group_307">
<g id="Group_308">
<path id="Vector_139" d="M87.1006 134.241V142.138H94.9971C94.9971 137.777 91.4617 134.241 87.1006 134.241Z" fill="black"/>
</g>
</g>
</g>
<g id="Group_309">
<g id="Group_310">
<path id="Vector_140" d="M118.687 138.19C118.687 137.269 118.687 134.241 118.687 134.241C118.687 134.241 121.375 134.241 122.635 134.241C123.62 134.241 126.584 134.241 126.584 134.241C126.584 134.241 126.584 136.993 126.584 138.19C126.584 140.37 124.816 142.138 122.635 142.138C120.455 142.138 118.687 140.37 118.687 138.19Z" fill="black"/>
</g>
</g>
<g id="Group_311">
<g id="Group_312">
<path id="Vector_141" d="M142.377 134.241H134.48V142.138H142.377V134.241Z" fill="black"/>
</g>
</g>
<g id="Group_313">
<g id="Group_314">
<path id="Vector_142" d="M158.17 134.241H150.273V142.138H158.17V134.241Z" fill="black"/>
</g>
</g>
<g id="Group_315">
<g id="Group_316">
<path id="Vector_143" d="M166.066 134.241H158.17V142.138H166.066V134.241Z" fill="black"/>
</g>
</g>
<g id="Group_317">
<g id="Group_318">
<path id="Vector_144" d="M189.756 138.19C189.756 137.269 189.756 134.241 189.756 134.241C189.756 134.241 192.444 134.241 193.704 134.241C194.688 134.241 197.652 134.241 197.652 134.241C197.652 134.241 197.652 136.993 197.652 138.19C197.652 140.37 195.885 142.138 193.704 142.138C191.524 142.138 189.756 140.37 189.756 138.19Z" fill="black"/>
</g>
</g>
<g id="Group_319">
<g id="Group_320">
<path id="Vector_145" d="M0.23877 146.086C0.23877 145.166 0.23877 142.138 0.23877 142.138C0.23877 142.138 2.92677 142.138 4.18705 142.138C5.17133 142.138 8.13532 142.138 8.13532 142.138C8.13532 142.138 8.13532 144.89 8.13532 146.086C8.13532 148.267 6.3675 150.034 4.18705 150.034C2.00648 150.034 0.23877 148.267 0.23877 146.086Z" fill="black"/>
</g>
</g>
<g id="Group_321">
<g id="Group_322">
<path id="Vector_146" d="M19.98 142.138C22.1607 142.138 23.9283 143.906 23.9283 146.086C23.9283 148.267 22.1607 150.034 19.98 150.034C17.7995 150.034 16.0317 148.267 16.0317 146.086C16.0317 143.906 17.7995 142.138 19.98 142.138Z" fill="black"/>
</g>
</g>
<g id="Group_323">
<g id="Group_324">
<g id="Group_325">
<path id="Vector_147" d="M47.6182 150.034V142.138H39.7217C39.7217 146.499 43.257 150.034 47.6182 150.034Z" fill="black"/>
</g>
</g>
</g>
<g id="Group_326">
<g id="Group_327">
<path id="Vector_148" d="M55.5147 142.138H47.6182V150.034H55.5147V142.138Z" fill="black"/>
</g>
</g>
<g id="Group_328">
<g id="Group_329">
<g id="Group_330">
<path id="Vector_149" d="M63.4112 142.138H55.5146V150.034C59.8758 150.034 63.4112 146.499 63.4112 142.138Z" fill="black"/>
</g>
</g>
</g>
<g id="Group_331">
<g id="Group_332">
<path id="Vector_150" d="M79.2042 142.138H71.3076V150.034H79.2042V142.138Z" fill="black"/>
</g>
</g>
<g id="Group_333">
<g id="Group_334">
<path id="Vector_151" d="M94.9971 142.138H87.1006V150.034H94.9971V142.138Z" fill="black"/>
</g>
</g>
<g id="Group_335">
<g id="Group_336">
<path id="Vector_152" d="M102.894 142.138H94.9976V150.034H102.894V142.138Z" fill="black"/>
</g>
</g>
<g id="Group_337">
<g id="Group_338">
<g id="Group_339">
<path id="Vector_153" d="M102.894 142.138V150.034H110.791C110.791 145.673 107.255 142.138 102.894 142.138Z" fill="black"/>
</g>
</g>
</g>
<g id="Group_340">
<g id="Group_341">
<g id="Group_342">
<path id="Vector_154" d="M126.583 150.034H134.48V142.138C130.119 142.138 126.583 145.673 126.583 150.034Z" fill="black"/>
</g>
</g>
</g>
<g id="Group_343">
<g id="Group_344">
<path id="Vector_155" d="M142.377 142.138H134.48V150.034H142.377V142.138Z" fill="black"/>
</g>
</g>
<g id="Group_345">
<g id="Group_346">
<path id="Vector_156" d="M150.274 142.138H142.377V150.034H150.274V142.138Z" fill="black"/>
</g>
</g>
<g id="Group_347">
<g id="Group_348">
<path id="Vector_157" d="M158.17 142.138H150.273V150.034H158.17V142.138Z" fill="black"/>
</g>
</g>
<g id="Group_349">
<g id="Group_350">
<path id="Vector_158" d="M166.066 142.138H158.17V150.034H166.066V142.138Z" fill="black"/>
</g>
</g>
<g id="Group_351">
<g id="Group_352">
<path id="Vector_159" d="M177.911 142.138C180.092 142.138 181.859 143.906 181.859 146.086C181.859 148.267 180.092 150.034 177.911 150.034C175.731 150.034 173.963 148.267 173.963 146.086C173.963 143.906 175.731 142.138 177.911 142.138Z" fill="black"/>
</g>
</g>
<g id="Group_353">
<g id="Group_354">
<path id="Vector_160" d="M67.3594 150.034C68.2797 150.034 71.3077 150.034 71.3077 150.034C71.3077 150.034 71.3077 152.722 71.3077 153.983C71.3077 154.967 71.3077 157.931 71.3077 157.931C71.3077 157.931 68.5562 157.931 67.3594 157.931C65.1781 157.931 63.4111 156.163 63.4111 153.983C63.4111 151.803 65.1781 150.034 67.3594 150.034Z" fill="black"/>
</g>
</g>
<g id="Group_355">
<g id="Group_356">
<path id="Vector_161" d="M79.2042 150.034H71.3076V157.931H79.2042V150.034Z" fill="black"/>
</g>
</g>
<g id="Group_357">
<g id="Group_358">
<g id="Group_359">
<path id="Vector_162" d="M94.9971 157.931V150.034H87.1006C87.1006 154.396 90.6359 157.931 94.9971 157.931Z" fill="black"/>
</g>
</g>
</g>
<g id="Group_360">
<g id="Group_361">
<path id="Vector_163" d="M102.894 150.034H94.9976V157.931H102.894V150.034Z" fill="black"/>
</g>
</g>
<g id="Group_362">
<g id="Group_363">
<path id="Vector_164" d="M110.791 150.034H102.894V157.931H110.791V150.034Z" fill="black"/>
</g>
</g>
<g id="Group_364">
<g id="Group_365">
<path id="Vector_165" d="M122.635 150.034C123.556 150.034 126.584 150.034 126.584 150.034C126.584 150.034 126.584 152.722 126.584 153.983C126.584 154.967 126.584 157.931 126.584 157.931C126.584 157.931 123.832 157.931 122.635 157.931C120.454 157.931 118.687 156.163 118.687 153.983C118.687 151.803 120.454 150.034 122.635 150.034Z" fill="black"/>
</g>
</g>
<g id="Group_366">
<g id="Group_367">
<path id="Vector_166" d="M134.48 150.034H126.583V157.931H134.48V150.034Z" fill="black"/>
</g>
</g>
<g id="Group_368">
<g id="Group_369">
<path id="Vector_167" d="M166.066 150.034H158.17V157.931H166.066V150.034Z" fill="black"/>
</g>
</g>
<g id="Group_370">
<g id="Group_371">
<path id="Vector_168" d="M170.015 157.931C169.094 157.931 166.066 157.931 166.066 157.931C166.066 157.931 166.066 155.243 166.066 153.983C166.066 152.998 166.066 150.034 166.066 150.034C166.066 150.034 168.819 150.034 170.015 150.034C172.195 150.034 173.963 151.802 173.963 153.983C173.963 156.163 172.195 157.931 170.015 157.931Z" fill="black"/>
</g>
</g>
<g id="Group_372">
<g id="Group_373">
<path id="Vector_169" d="M71.3076 161.879C71.3076 160.959 71.3076 157.931 71.3076 157.931C71.3076 157.931 73.9956 157.931 75.2559 157.931C76.2402 157.931 79.2042 157.931 79.2042 157.931C79.2042 157.931 79.2042 160.683 79.2042 161.879C79.2042 164.06 77.4364 165.828 75.2559 165.828C73.0753 165.828 71.3076 164.06 71.3076 161.879Z" fill="black"/>
</g>
</g>
<g id="Group_374">
<g id="Group_375">
<g id="Group_376">
<path id="Vector_170" d="M110.791 165.828V157.931H102.894C102.894 162.292 106.429 165.828 110.791 165.828Z" fill="black"/>
</g>
</g>
</g>
<g id="Group_377">
<g id="Group_378">
<path id="Vector_171" d="M114.739 165.828C113.819 165.828 110.791 165.828 110.791 165.828C110.791 165.828 110.791 163.139 110.791 161.879C110.791 160.895 110.791 157.931 110.791 157.931C110.791 157.931 113.543 157.931 114.739 157.931C116.919 157.931 118.687 159.699 118.687 161.879C118.687 164.06 116.919 165.828 114.739 165.828Z" fill="black"/>
</g>
</g>
<g id="Group_379">
<g id="Group_380">
<path id="Vector_172" d="M134.48 157.931H126.583V165.828H134.48V157.931Z" fill="black"/>
</g>
</g>
<g id="Group_381">
<g id="Group_382">
<path id="Vector_173" d="M146.325 157.931C148.506 157.931 150.274 159.699 150.274 161.879C150.274 164.06 148.506 165.828 146.325 165.828C144.145 165.828 142.377 164.06 142.377 161.879C142.377 159.699 144.145 157.931 146.325 157.931Z" fill="black"/>
</g>
</g>
<g id="Group_383">
<g id="Group_384">
<path id="Vector_174" d="M166.066 157.931H158.17V165.828H166.066V157.931Z" fill="black"/>
</g>
</g>
<g id="Group_385">
<g id="Group_386">
<path id="Vector_175" d="M177.911 157.931C178.831 157.931 181.859 157.931 181.859 157.931C181.859 157.931 181.859 160.619 181.859 161.879C181.859 162.863 181.859 165.828 181.859 165.828C181.859 165.828 179.108 165.828 177.911 165.828C175.73 165.828 173.963 164.059 173.963 161.879C173.963 159.699 175.73 157.931 177.911 157.931Z" fill="black"/>
</g>
</g>
<g id="Group_387">
<g id="Group_388">
<path id="Vector_176" d="M189.756 157.931H181.859V165.828H189.756V157.931Z" fill="black"/>
</g>
</g>
<g id="Group_389">
<g id="Group_390">
<path id="Vector_177" d="M193.704 165.828C192.784 165.828 189.756 165.828 189.756 165.828C189.756 165.828 189.756 163.139 189.756 161.879C189.756 160.895 189.756 157.931 189.756 157.931C189.756 157.931 192.508 157.931 193.704 157.931C195.885 157.931 197.652 159.699 197.652 161.879C197.652 164.06 195.885 165.828 193.704 165.828Z" fill="black"/>
</g>
</g>
<g id="Group_391">
<g id="Group_392">
<path id="Vector_178" d="M71.3077 169.776C71.3077 170.696 71.3077 173.724 71.3077 173.724C71.3077 173.724 68.6198 173.724 67.3594 173.724C66.3751 173.724 63.4111 173.724 63.4111 173.724C63.4111 173.724 63.4111 170.972 63.4111 169.776C63.4112 167.595 65.1788 165.828 67.3593 165.828C69.5399 165.828 71.3077 167.595 71.3077 169.776Z" fill="black"/>
</g>
</g>
<g id="Group_393">
<g id="Group_394">
<path id="Vector_179" d="M134.48 165.828H126.583V173.724H134.48V165.828Z" fill="black"/>
</g>
</g>
<g id="Group_395">
<g id="Group_396">
<path id="Vector_180" d="M166.066 165.828H158.17V173.724H166.066V165.828Z" fill="black"/>
</g>
</g>
<g id="Group_397">
<g id="Group_398">
<path id="Vector_181" d="M170.015 173.724C169.094 173.724 166.066 173.724 166.066 173.724C166.066 173.724 166.066 171.036 166.066 169.776C166.066 168.792 166.066 165.828 166.066 165.828C166.066 165.828 168.819 165.828 170.015 165.828C172.195 165.828 173.963 167.595 173.963 169.776C173.963 171.956 172.195 173.724 170.015 173.724Z" fill="black"/>
</g>
</g>
<g id="Group_399">
<g id="Group_400">
<path id="Vector_182" d="M71.3077 173.724H63.4111V181.621H71.3077V173.724Z" fill="black"/>
</g>
</g>
<g id="Group_401">
<g id="Group_402">
<path id="Vector_183" d="M79.2042 173.724H71.3076V181.621H79.2042V173.724Z" fill="black"/>
</g>
</g>
<g id="Group_403">
<g id="Group_404">
<path id="Vector_184" d="M87.1007 173.724H79.2041V181.621H87.1007V173.724Z" fill="black"/>
</g>
</g>
<g id="Group_405">
<g id="Group_406">
<path id="Vector_185" d="M94.9971 173.724H87.1006V181.621H94.9971V173.724Z" fill="black"/>
</g>
</g>
<g id="Group_407">
<g id="Group_408">
<path id="Vector_186" d="M102.894 173.724H94.9976V181.621H102.894V173.724Z" fill="black"/>
</g>
</g>
<g id="Group_409">
<g id="Group_410">
<path id="Vector_187" d="M110.791 173.724H102.894V181.621H110.791V173.724Z" fill="black"/>
</g>
</g>
<g id="Group_411">
<g id="Group_412">
<path id="Vector_188" d="M118.687 173.724H110.791V181.621H118.687V173.724Z" fill="black"/>
</g>
</g>
<g id="Group_413">
<g id="Group_414">
<path id="Vector_189" d="M126.584 173.724H118.687V181.621H126.584V173.724Z" fill="black"/>
</g>
</g>
<g id="Group_415">
<g id="Group_416">
<path id="Vector_190" d="M134.48 173.724H126.583V181.621H134.48V173.724Z" fill="black"/>
</g>
</g>
<g id="Group_417">
<g id="Group_418">
<path id="Vector_191" d="M142.377 173.724H134.48V181.621H142.377V173.724Z" fill="black"/>
</g>
</g>
<g id="Group_419">
<g id="Group_420">
<path id="Vector_192" d="M150.274 173.724H142.377V181.621H150.274V173.724Z" fill="black"/>
</g>
</g>
<g id="Group_421">
<g id="Group_422">
<path id="Vector_193" d="M158.17 173.724H150.273V181.621H158.17V173.724Z" fill="black"/>
</g>
</g>
<g id="Group_423">
<g id="Group_424">
<path id="Vector_194" d="M166.066 173.724H158.17V181.621H166.066V173.724Z" fill="black"/>
</g>
</g>
<g id="Group_425">
<g id="Group_426">
<path id="Vector_195" d="M181.859 177.672C181.859 178.593 181.859 181.621 181.859 181.621C181.859 181.621 179.172 181.621 177.911 181.62C176.927 181.621 173.963 181.62 173.963 181.62C173.963 181.62 173.963 178.869 173.963 177.672C173.963 175.492 175.731 173.724 177.911 173.724C180.092 173.724 181.859 175.492 181.859 177.672Z" fill="black"/>
</g>
</g>
<g id="Group_427">
<g id="Group_428">
<path id="Vector_196" d="M71.3077 181.621H63.4111V189.517H71.3077V181.621Z" fill="black"/>
</g>
</g>
<g id="Group_429">
<g id="Group_430">
<path id="Vector_197" d="M87.1006 185.569C87.1006 184.649 87.1006 181.621 87.1006 181.621C87.1006 181.621 89.7886 181.621 91.0489 181.621C92.0332 181.621 94.9971 181.621 94.9971 181.621C94.9971 181.621 94.9971 184.373 94.9971 185.569C94.9971 187.749 93.2293 189.517 91.0489 189.517C88.8683 189.517 87.1006 187.749 87.1006 185.569Z" fill="black"/>
</g>
</g>
<g id="Group_431">
<g id="Group_432">
<path id="Vector_198" d="M126.584 181.621H118.687V189.517H126.584V181.621Z" fill="black"/>
</g>
</g>
<g id="Group_433">
<g id="Group_434">
<g id="Group_435">
<path id="Vector_199" d="M134.48 181.621H126.583V189.517C130.945 189.517 134.48 185.982 134.48 181.621Z" fill="black"/>
</g>
</g>
</g>
<g id="Group_436">
<g id="Group_437">
<path id="Vector_200" d="M142.377 185.569C142.377 184.649 142.377 181.621 142.377 181.621C142.377 181.621 145.065 181.621 146.325 181.621C147.31 181.621 150.274 181.621 150.274 181.621C150.274 181.621 150.274 184.373 150.274 185.569C150.274 187.749 148.506 189.517 146.325 189.517C144.145 189.517 142.377 187.749 142.377 185.569Z" fill="black"/>
</g>
</g>
<g id="Group_438">
<g id="Group_439">
<g id="Group_440">
<path id="Vector_201" d="M166.066 189.517V181.621H158.17C158.17 185.982 161.705 189.517 166.066 189.517Z" fill="black"/>
</g>
</g>
</g>
<g id="Group_441">
<g id="Group_442">
<path id="Vector_202" d="M173.963 181.621H166.066V189.517H173.963V181.621Z" fill="black"/>
</g>
</g>
<g id="Group_443">
<g id="Group_444">
<path id="Vector_203" d="M181.859 181.621H173.963V189.517H181.859V181.621Z" fill="black"/>
</g>
</g>
<g id="Group_445">
<g id="Group_446">
<path id="Vector_204" d="M189.756 181.621H181.859V189.517H189.756V181.621Z" fill="black"/>
</g>
</g>
<g id="Group_447">
<g id="Group_448">
<g id="Group_449">
<path id="Vector_205" d="M189.756 181.621V189.517H197.652C197.652 185.156 194.117 181.621 189.756 181.621Z" fill="black"/>
</g>
</g>
</g>
<g id="Group_450">
<g id="Group_451">
<path id="Vector_206" d="M63.4111 193.465C63.4111 192.545 63.4111 189.517 63.4111 189.517C63.4111 189.517 66.0991 189.517 67.3594 189.517C68.3437 189.517 71.3077 189.517 71.3077 189.517C71.3077 189.517 71.3077 192.269 71.3077 193.465C71.3077 195.646 69.5399 197.414 67.3594 197.414C65.1788 197.414 63.4111 195.646 63.4111 193.465Z" fill="black"/>
</g>
</g>
<g id="Group_452">
<g id="Group_453">
<path id="Vector_207" d="M87.1007 193.465C87.1007 194.386 87.1007 197.414 87.1007 197.414C87.1007 197.414 84.4128 197.414 83.1524 197.414C82.1681 197.414 79.2041 197.414 79.2041 197.414C79.2041 197.414 79.2041 194.662 79.2041 193.465C79.2042 191.285 80.9718 189.517 83.1523 189.517C85.3328 189.517 87.1007 191.285 87.1007 193.465Z" fill="black"/>
</g>
</g>
<g id="Group_454">
<g id="Group_455">
<path id="Vector_208" d="M106.842 189.517C109.023 189.517 110.791 191.285 110.791 193.465C110.791 195.646 109.023 197.414 106.842 197.414C104.662 197.414 102.894 195.646 102.894 193.465C102.894 191.285 104.662 189.517 106.842 189.517Z" fill="black"/>
</g>
</g>
<g id="Group_456">
<g id="Group_457">
<path id="Vector_209" d="M126.584 189.517H118.687V197.414H126.584V189.517Z" fill="black"/>
</g>
</g>
<g id="Group_458">
<g id="Group_459">
<path id="Vector_210" d="M173.963 189.517H166.066V197.414H173.963V189.517Z" fill="black"/>
</g>
</g>
<g id="Group_460">
<g id="Group_461">
<g id="Group_462">
<path id="Vector_211" d="M181.859 189.517H173.963V197.414C178.324 197.414 181.859 193.878 181.859 189.517Z" fill="black"/>
</g>
</g>
</g>
<g id="Group_463">
<g id="Group_464">
<path id="Vector_212" d="M197.652 189.517H189.756V197.414H197.652V189.517Z" fill="black"/>
</g>
</g>
<g id="Group_465">
<g id="Group_466">
<path id="Vector_213" d="M75.2559 197.414C76.1762 197.414 79.2042 197.414 79.2042 197.414C79.2042 197.414 79.2042 200.102 79.2042 201.362C79.2042 202.346 79.2042 205.31 79.2042 205.31C79.2042 205.31 76.4527 205.31 75.2559 205.31C73.0746 205.31 71.3076 203.542 71.3076 201.362C71.3076 199.182 73.0746 197.414 75.2559 197.414Z" fill="black"/>
</g>
</g>
<g id="Group_467">
<g id="Group_468">
<path id="Vector_214" d="M87.1007 197.414H79.2041V205.31H87.1007V197.414Z" fill="black"/>
</g>
</g>
<g id="Group_469">
<g id="Group_470">
<g id="Group_471">
<path id="Vector_215" d="M87.1006 197.414V205.31H94.9971C94.9971 200.949 91.4617 197.414 87.1006 197.414Z" fill="black"/>
</g>
</g>
</g>
<g id="Group_472">
<g id="Group_473">
<g id="Group_474">
<path id="Vector_216" d="M110.791 205.31H118.687V197.414C114.326 197.414 110.791 200.949 110.791 205.31Z" fill="black"/>
</g>
</g>
</g>
<g id="Group_475">
<g id="Group_476">
<path id="Vector_217" d="M126.584 197.414H118.687V205.31H126.584V197.414Z" fill="black"/>
</g>
</g>
<g id="Group_477">
<g id="Group_478">
<path id="Vector_218" d="M134.48 197.414H126.583V205.31H134.48V197.414Z" fill="black"/>
</g>
</g>
<g id="Group_479">
<g id="Group_480">
<path id="Vector_219" d="M138.428 205.31C137.508 205.31 134.48 205.31 134.48 205.31C134.48 205.31 134.48 202.622 134.48 201.362C134.48 200.378 134.48 197.414 134.48 197.414C134.48 197.414 137.232 197.414 138.428 197.414C140.609 197.414 142.377 199.182 142.377 201.362C142.377 203.543 140.609 205.31 138.428 205.31Z" fill="black"/>
</g>
</g>
<g id="Group_481">
<g id="Group_482">
<g id="Group_483">
<path id="Vector_220" d="M150.273 205.31H158.17V197.414C153.809 197.414 150.273 200.949 150.273 205.31Z" fill="black"/>
</g>
</g>
</g>
<g id="Group_484">
<g id="Group_485">
<path id="Vector_221" d="M166.066 197.414H158.17V205.31H166.066V197.414Z" fill="black"/>
</g>
</g>
<g id="Group_486">
<g id="Group_487">
<path id="Vector_222" d="M173.963 197.414H166.066V205.31H173.963V197.414Z" fill="black"/>
</g>
</g>
<g id="Group_488">
<g id="Group_489">
<path id="Vector_223" d="M197.652 197.414H189.756V205.31H197.652V197.414Z" fill="black"/>
</g>
</g>
<g id="Group_490">
<g id="Group_491">
<path id="Vector_224" d="M67.3594 205.31C69.5401 205.31 71.3077 207.078 71.3077 209.259C71.3077 211.439 69.5401 213.207 67.3594 213.207C65.1789 213.207 63.4111 211.439 63.4111 209.259C63.4111 207.078 65.1789 205.31 67.3594 205.31Z" fill="black"/>
</g>
</g>
<g id="Group_492">
<g id="Group_493">
<g id="Group_494">
<path id="Vector_225" d="M87.1007 213.207V205.31H79.2041C79.2041 209.671 82.7394 213.207 87.1007 213.207Z" fill="black"/>
</g>
</g>
</g>
<g id="Group_495">
<g id="Group_496">
<path id="Vector_226" d="M94.9971 205.31H87.1006V213.207H94.9971V205.31Z" fill="black"/>
</g>
</g>
<g id="Group_497">
<g id="Group_498">
<path id="Vector_227" d="M102.894 205.31H94.9976V213.207H102.894V205.31Z" fill="black"/>
</g>
</g>
<g id="Group_499">
<g id="Group_500">
<path id="Vector_228" d="M110.791 205.31H102.894V213.207H110.791V205.31Z" fill="black"/>
</g>
</g>
<g id="Group_501">
<g id="Group_502">
<g id="Group_503">
<path id="Vector_229" d="M118.687 205.31H110.791V213.207C115.152 213.207 118.687 209.671 118.687 205.31Z" fill="black"/>
</g>
</g>
</g>
<g id="Group_504">
<g id="Group_505">
<g id="Group_506">
<path id="Vector_230" d="M158.17 213.207V205.31H150.273C150.273 209.671 153.809 213.207 158.17 213.207Z" fill="black"/>
</g>
</g>
</g>
<g id="Group_507">
<g id="Group_508">
<path id="Vector_231" d="M166.066 205.31H158.17V213.207H166.066V205.31Z" fill="black"/>
</g>
</g>
<g id="Group_509">
<g id="Group_510">
<path id="Vector_232" d="M173.963 205.31H166.066V213.207H173.963V205.31Z" fill="black"/>
</g>
</g>
<g id="Group_511">
<g id="Group_512">
<path id="Vector_233" d="M181.859 205.31H173.963V213.207H181.859V205.31Z" fill="black"/>
</g>
</g>
<g id="Group_513">
<g id="Group_514">
<path id="Vector_234" d="M189.756 205.31H181.859V213.207H189.756V205.31Z" fill="black"/>
</g>
</g>
<g id="Group_515">
<g id="Group_516">
<g id="Group_517">
<path id="Vector_235" d="M197.652 205.31H189.756V213.207C194.117 213.207 197.652 209.671 197.652 205.31Z" fill="black"/>
</g>
</g>
</g>
<g id="Group_518">
<g id="Group_519">
<g id="Group_520">
<path id="Vector_236" d="M0.238785 52.3973V34.4487C0.238785 24.1624 8.70705 15.7931 19.1105 15.7931H36.6435C47.0464 15.7931 55.5146 24.1624 55.5146 34.4487V71.069L19.1105 71.0579C8.70705 71.0579 0.238785 62.6891 0.238785 52.3973ZM8.53016 52.3973C8.53016 58.1151 13.2761 62.7671 19.1127 62.7671L47.2233 62.7754V34.4487C47.2233 28.7337 42.4773 24.0845 36.6435 24.0845H19.1105C13.2761 24.0845 8.53016 28.7337 8.53016 34.4487V52.3973Z" fill="black"/>
</g>
</g>
</g>
<g id="Group_521">
<g id="Group_522">
<g id="Group_523">
<path id="Vector_237" d="M197.653 52.3973V34.4487C197.653 24.1624 189.185 15.7931 178.781 15.7931H161.248C150.845 15.7931 142.377 24.1624 142.377 34.4487V71.069L178.781 71.0579C189.185 71.0579 197.653 62.6891 197.653 52.3973ZM189.361 52.3973C189.361 58.1151 184.615 62.7671 178.779 62.7671L150.668 62.7754V34.4487C150.668 28.7337 155.414 24.0845 161.248 24.0845H178.781C184.615 24.0845 189.361 28.7337 189.361 34.4487V52.3973Z" fill="black"/>
</g>
</g>
</g>
<g id="Group_524">
<g id="Group_525">
<g id="Group_526">
<path id="Vector_238" d="M0.238785 176.603V194.551C0.238785 204.838 8.70705 213.207 19.1105 213.207H36.6435C47.0464 213.207 55.5146 204.838 55.5146 194.551V157.931L19.1105 157.942C8.70705 157.942 0.238785 166.311 0.238785 176.603ZM8.53016 176.603C8.53016 170.885 13.2761 166.233 19.1127 166.233L47.2233 166.225V194.551C47.2233 200.266 42.4773 204.916 36.6435 204.916H19.1105C13.2761 204.916 8.53016 200.266 8.53016 194.551V176.603Z" fill="black"/>
</g>
</g>
</g>
<g id="Group_527">
<g id="Group_528">
<path id="Vector_239" d="M16.032 48.8273V38.0286C16.032 34.477 18.9686 31.5862 22.5775 31.5862H33.1762C36.7849 31.5862 39.7217 34.477 39.7217 38.0286V55.2758L22.5775 55.2659C18.9686 55.2659 16.032 52.3788 16.032 48.8273Z" fill="black"/>
</g>
</g>
<g id="Group_529">
<g id="Group_530">
<path id="Vector_240" d="M181.86 48.8273V38.0286C181.86 34.477 178.923 31.5862 175.314 31.5862H164.715C161.107 31.5862 158.17 34.477 158.17 38.0286V55.2758L175.314 55.2659C178.923 55.2659 181.86 52.3788 181.86 48.8273Z" fill="black"/>
</g>
</g>
<g id="Group_531">
<g id="Group_532">
<path id="Vector_241" d="M16.032 180.173V190.971C16.032 194.523 18.9686 197.414 22.5775 197.414H33.1762C36.7849 197.414 39.7217 194.523 39.7217 190.971V173.724L22.5775 173.734C18.9686 173.734 16.032 176.621 16.032 180.173Z" fill="black"/>
</g>
</g>
</g>
</g>
<defs>
<clipPath id="clip0_156_2040">
<rect width="198" height="229" fill="white"/>
</clipPath>
</defs>
</svg>
